<svg id="Capa_1" enable-background="new 0 0 512 512" viewBox="0 0 512 512" xmlns="http://www.w3.org/2000/svg"><g><g><path d="m501 156.574h-490c-6.075 0-11 4.925-11 11v285c0 6.075 4.925 11 11 11h490c6.075 0 11-4.925 11-11v-285c0-6.075-4.925-11-11-11zm-11 22v22h-468v-22zm-468 263v-219h468v219z"/><path d="m215.91 389.614c-2.689-7.102-12.733-9.09-17.94-3.57-6.895 6.808-1.905 18.837 7.781 18.78 7.627.158 13.254-8.216 10.159-15.21z"/><path d="m316.41 389.614c-2.695-7.101-12.731-9.088-17.94-3.57-6.892 6.813-1.906 18.835 7.781 18.78 7.578.209 13.273-8.28 10.159-15.21z"/><path d="m115.41 389.614c-2.692-7.102-12.732-9.09-17.94-3.57-6.894 6.806-1.904 18.843 7.781 18.78 7.574.214 13.282-8.285 10.159-15.21z"/><path d="m165.66 409.614c-2.695-7.101-12.731-9.088-17.94-3.57-6.894 6.806-1.905 18.842 7.781 18.78 7.578.213 13.275-8.283 10.159-15.21z"/><path d="m266.16 409.614c-2.689-7.101-12.733-9.088-17.94-3.57-6.892 6.813-1.905 18.834 7.781 18.78 7.575.21 13.283-8.284 10.159-15.21z"/><path d="m366.66 409.614c-2.695-7.101-12.731-9.088-17.94-3.57-6.891 6.813-1.908 18.834 7.781 18.78 7.579.209 13.274-8.281 10.159-15.21z"/><path d="m416.91 389.614c-2.689-7.101-12.733-9.088-17.94-3.57-6.893 6.81-1.903 18.838 7.781 18.78 7.577.213 13.275-8.283 10.159-15.21z"/><path d="m463.11 404.674c-7.108-4.9-17.241.514-17.11 9.15-.129 8.624 10.015 14.055 17.11 9.139 6.45-4.089 6.446-14.197 0-18.289z"/><path d="m65.16 409.614c-2.758-7.144-12.674-9.065-17.94-3.57-6.89 6.802-1.908 18.847 7.781 18.78 7.586.216 13.269-8.283 10.159-15.21z"/></g><g fill="#3cc"><path d="m175.652 51.648-13.757 13.757c-18.773 18.773-33.443 40.729-43.603 65.256-10.16 24.528-15.311 50.426-15.311 76.976v43.381l-24.383 24.382c-19.51 19.51-19.51 51.255 0 70.766 9.755 9.755 22.569 14.632 35.383 14.632 12.813 0 25.627-4.877 35.382-14.632 19.51-19.51 19.51-51.255 0-70.765l-24.382-24.383v-43.381c0-47.852 18.634-92.84 52.471-126.676l13.757-13.757c4.296-4.296 4.295-11.26 0-15.556s-11.261-4.296-15.557 0zm-41.845 278.961c-10.932 10.933-28.72 10.932-39.652 0-5.296-5.296-8.212-12.337-8.212-19.826s2.917-14.53 8.212-19.827l19.826-19.826 19.826 19.826c10.932 10.933 10.932 28.721 0 39.653z"/><path d="m317.671 51.648-13.757 13.757c-18.773 18.773-33.443 40.729-43.603 65.256-10.16 24.529-15.311 50.427-15.311 76.976v43.381l-24.383 24.383c-19.51 19.51-19.51 51.255 0 70.766 9.755 9.755 22.568 14.632 35.382 14.632s25.627-4.877 35.383-14.632c19.51-19.51 19.51-51.255 0-70.766l-24.382-24.383v-43.381c0-47.852 18.634-92.839 52.471-126.675l13.757-13.757c4.295-4.296 4.295-11.261 0-15.557-4.296-4.296-11.261-4.296-15.557 0zm-41.844 278.961c-10.933 10.932-28.721 10.932-39.653 0-10.933-10.932-10.933-28.72 0-39.652l19.826-19.827 19.826 19.827c10.933 10.932 10.933 28.72.001 39.652z"/><path d="m475.247 51.648c-4.296-4.296-11.26-4.295-15.556 0l-13.757 13.757c-18.773 18.773-33.443 40.729-43.603 65.256-10.16 24.528-15.312 50.426-15.312 76.976v43.381l-24.382 24.383c-19.51 19.51-19.51 51.255 0 70.766 9.755 9.755 22.569 14.632 35.382 14.632 12.814 0 25.628-4.877 35.383-14.632 19.51-19.51 19.51-51.255 0-70.765l-24.383-24.383v-43.381c0-47.852 18.635-92.839 52.471-126.676l13.757-13.757c4.296-4.297 4.295-11.262 0-15.557zm-49.189 259.135c0 7.489-2.917 14.53-8.212 19.826-10.931 10.933-28.719 10.933-39.652 0-10.933-10.932-10.933-28.72 0-39.653l19.826-19.826 19.826 19.826c5.295 5.297 8.212 12.338 8.212 19.827z"/></g></g><g/><g/><g/><g/><g/><g/><g/><g/><g/><g/><g/><g/><g/><g/><g/></svg>