<svg id="Capa_1" enable-background="new 0 0 512 512" viewBox="0 0 512 512" xmlns="http://www.w3.org/2000/svg"><g><g><path d="m386 55h-64v-14c0-6.075-4.925-11-11-11h-50.499c-4.818-17.284-20.702-30-39.501-30s-34.683 12.716-39.501 30h-50.499c-6.075 0-11 4.925-11 11v14h-64c-6.075 0-11 4.925-11 11v405c0 6.075 4.925 11 11 11h268.802c6.075 0 11-4.925 11-11s-4.925-11-11-11h-257.802v-383h53v14c0 6.075 4.925 11 11 11h180c6.075 0 11-4.925 11-11v-14h53v246.662c0 6.075 4.925 11 11 11s11-4.925 11-11v-257.662c0-6.076-4.925-11-11-11zm-86 25h-158v-28h49c6.075 0 11-4.925 11-11 0-10.477 8.523-19 19-19s19 8.523 19 19c0 6.075 4.925 11 11 11h49z"/><path d="m331.5 161.318h-122c-6.075 0-11 4.925-11 11s4.925 11 11 11h122c6.075 0 11-4.925 11-11s-4.925-11-11-11z"/><path d="m331.5 261.317h-122c-6.075 0-11 4.925-11 11s4.925 11 11 11h122c6.075 0 11-4.925 11-11s-4.925-11-11-11z"/><path d="m331.5 361.317h-122c-6.075 0-11 4.925-11 11s4.925 11 11 11h122c6.075 0 11-4.925 11-11s-4.925-11-11-11z"/></g><g fill="#3cc"><path d="m438.745 358.023c-16.61-21.242-35.578-35.396-47.79-41.558-3.117-1.572-6.795-1.572-9.911 0-12.212 6.163-31.179 20.316-47.79 41.558-12.889 16.484-28.254 42.526-28.254 72.977 0 44.664 36.336 81 81 81s81-36.336 81-81c0-30.451-15.365-56.493-28.255-72.977zm-52.745 131.977c-32.532 0-59-26.467-59-59 0-40.571 36.483-78.186 59-92.098 22.517 13.912 59 51.526 59 92.098 0 32.533-26.467 59-59 59z"/><path d="m405.897 407.496h-8.897v-8.897c0-6.075-4.925-11-11-11s-11 4.925-11 11v8.897h-8.897c-6.075 0-11 4.925-11 11s4.925 11 11 11h8.897v8.898c0 6.075 4.925 11 11 11s11-4.925 11-11v-8.898h8.898c6.075 0 11-4.925 11-11s-4.925-11-11.001-11z"/><path d="m155.222 147.04-27.222 27.221-9.722-9.722c-4.295-4.296-11.26-4.295-15.556 0s-4.295 11.26 0 15.556l17.5 17.5c2.147 2.148 4.963 3.222 7.778 3.222s5.63-1.074 7.778-3.222l35.001-35c4.295-4.296 4.296-11.261 0-15.556-4.297-4.296-11.262-4.295-15.557.001z"/><path d="m155.222 247.039-27.222 27.222-9.722-9.722c-4.296-4.296-11.261-4.296-15.557 0-4.295 4.296-4.295 11.261 0 15.557l17.5 17.5c2.148 2.148 4.963 3.222 7.778 3.222s5.63-1.074 7.778-3.222l35-35c4.295-4.296 4.295-11.261 0-15.557-4.296-4.296-11.26-4.296-15.555 0z"/><path d="m155.222 347.039-27.222 27.222-9.722-9.722c-4.296-4.296-11.261-4.296-15.557 0-4.295 4.296-4.295 11.261 0 15.557l17.5 17.5c2.148 2.148 4.963 3.222 7.778 3.222s5.63-1.074 7.778-3.222l35-35c4.295-4.296 4.295-11.261 0-15.557-4.296-4.296-11.26-4.296-15.555 0z"/></g></g><g/><g/><g/><g/><g/><g/><g/><g/><g/><g/><g/><g/><g/><g/><g/></svg>