<svg id="Capa_1" enable-background="new 0 0 512 512" height="512" viewBox="0 0 512 512" width="512" xmlns="http://www.w3.org/2000/svg"><g><path d="m500.576 269.729-34.605-74.206c-35.943-77.072-92.599-142.355-163.841-188.79-6.759-4.405-14.594-6.733-22.66-6.733h-53.287c-15.929 0-30.194 8.877-37.231 23.169l-24.149 49.051c-2.08 4.225-1.239 9.306 2.091 12.637l56.93 56.93c3.35 3.349 8.466 4.178 12.697 2.061l36.611-18.305 14.042 14.53c.044.045.088.09.132.134 18.687 18.687 26.42 45.244 20.687 71.041-4.19 18.859-3.601 38.645 1.707 57.22.246.861.52 1.711.784 2.564-21.979-11.651-46.679-17.898-71.73-17.898-26.354 0-52.404 6.863-75.337 19.847-9.407 5.326-18.188 11.647-26.225 18.793-27.7-29.821-66.392-46.774-107.367-46.774h-18.825c-6.075 0-11 4.925-11 11v211.452c0 4.6 2.862 8.714 7.176 10.314l19.695 7.303c48.195 17.87 98.694 26.931 150.097 26.931 53.812 0 106.523-9.901 156.668-29.429l85.337-33.231c36.515-14.22 65.615-41.669 81.941-77.291 7.356-16.05 11.086-33.14 11.086-50.795 0-17.681-3.95-35.498-11.424-51.525zm-19.662 93.154c-13.932 30.398-38.765 53.822-69.925 65.957l-85.337 33.231c-47.588 18.532-97.614 27.929-148.684 27.929-48.782 0-96.709-8.599-142.448-25.559l-12.52-4.642v-192.799h7.825c35.187 0 68.388 14.715 91.978 40.552-5.228 6.204-9.973 12.828-14.166 19.818l-7.459 12.431c-3.125 5.21-1.436 11.966 3.774 15.092 1.771 1.063 3.723 1.569 5.648 1.569 3.736 0 7.381-1.905 9.443-5.342l7.459-12.432c23.521-39.203 66.533-63.556 112.251-63.556 29.577 0 58.586 10.164 81.696 28.621l36.698 30.523c.002.002.004.003.006.005l13.796 11.497c2.057 1.714 4.553 2.55 7.036 2.55 3.151 0 6.281-1.348 8.456-3.958 3.89-4.667 3.259-11.603-1.408-15.493l-23.852-19.877c-14.615-12.18-25.103-28.286-30.328-46.579-4.305-15.063-4.783-31.108-1.385-46.402 7.366-33.146-2.554-67.27-26.537-91.3l-9.172-9.491 7.824-3.912c5.435-2.717 7.637-9.325 4.92-14.758s-9.326-7.637-14.758-4.919l-20.194 10.097c-.738.274-1.452.627-2.129 1.064l-35.649 17.824-45.753-45.754 20.67-41.984c3.305-6.715 10.008-10.886 17.493-10.886h53.287c3.79 0 7.472 1.094 10.647 3.164 67.797 44.189 121.712 106.313 155.917 179.658l34.604 74.205c6.125 13.135 9.362 27.737 9.362 42.228 0 14.468-3.057 28.473-9.086 41.628z"/><g fill="#3cc"><path d="m190.938 218.203c-2.815 0-5.63-1.074-7.778-3.222l-16.266-16.265c-4.296-4.296-4.296-11.261 0-15.556 4.295-4.296 11.26-4.296 15.557-.001l16.266 16.265c4.296 4.296 4.296 11.261 0 15.556-2.149 2.149-4.964 3.223-7.779 3.223z"/><path d="m256 218.203c-2.815 0-5.63-1.074-7.778-3.222-4.296-4.296-4.296-11.26 0-15.556l16.266-16.265c4.296-4.295 11.261-4.296 15.557.001 4.296 4.295 4.296 11.26 0 15.556l-16.266 16.265c-2.148 2.147-4.964 3.221-7.779 3.221z"/></g></g></svg>