<svg id="Capa_1" enable-background="new 0 0 512 512" viewBox="0 0 512 512" xmlns="http://www.w3.org/2000/svg"><g><g><path d="m421.551 351.163v-20.919c13.406-9.623 23.977-22.955 30.199-38.483l.053.053 27.808-27.808c18.418-18.418 28.561-42.905 28.561-68.952 0-45.92-32.162-85.341-76.165-95.167-4.223-29.948-30.007-53.066-61.102-53.066-31.099 0-56.886 23.125-61.103 53.081-43.534 9.762-76.163 48.716-76.163 95.152 0 26.047 10.144 50.535 28.561 68.952l4.394 4.394 30.329-8.122 13.459 31.334-15.797 9.679c6.303 11.461 15.101 21.365 25.675 28.953v20.918c-50.787 5.499-90.45 48.635-90.45 100.863v2.152c0 6.075 4.925 11 11 11h260.19c6.075 0 11-4.925 11-11v-2.158c0-52.223-39.662-95.357-90.449-100.856zm9.501-228.829c32.075 8.97 55.119 38.512 55.119 72.721 0 20.17-7.854 39.133-22.117 53.396l-6.097 6.097v-19.232c0-34.348-19.998-64.11-48.96-78.264 10.907-8.584 18.854-20.752 22.055-34.718zm-147.2 112.981v19.231l-6.096-6.096c-14.263-14.262-22.117-33.225-22.117-53.396 0-41.638 33.875-75.513 75.513-75.513h18.133c6.075 0 11-4.925 11-11s-4.925-11-11-11h-16.538c4.783-16.566 20.073-28.72 38.158-28.72 21.902 0 39.721 17.818 39.721 39.72s-17.818 39.72-39.721 39.72c-48.001.001-87.053 39.053-87.053 87.054zm22 24.168v-24.167c0-35.87 29.183-65.053 65.053-65.053s65.053 29.183 65.053 65.053v24.167c0 35.87-29.183 65.053-65.053 65.053s-65.053-29.183-65.053-65.053zm-53.554 183.695c4.413-39.664 38.142-70.607 78.961-70.607 6.075 0 11-4.925 11-11v-19.884c8.975 3.137 18.614 4.848 28.646 4.848s19.671-1.711 28.646-4.848v19.884c0 6.075 4.925 11 11 11 40.819 0 74.548 30.946 78.96 70.607z"/><path d="m370.904 302.535c19.715 0 35.755-16.04 35.755-35.755 0-6.075-4.925-11-11-11s-11 4.925-11 11c0 7.584-6.171 13.755-13.755 13.755s-13.755-6.17-13.755-13.755c0-6.075-4.925-11-11-11s-11 4.925-11 11c.001 19.716 16.041 35.755 35.755 35.755z"/></g><g><path d="m320.488 287.271-13.459-31.334c-2.157-5.022-7.678-7.698-12.953-6.284l-67.298 18.023 5.691 21.251 58.103-15.56 5.944 13.84-51.287 31.426 11.494 18.759 59.404-36.399c4.661-2.857 6.518-8.7 4.361-13.722z" fill="#3cc"/></g><g><path d="m269.362 342.943-37.909-88.256c-2.398-5.583-8.87-8.161-14.448-5.766l-56.057 24.078c-1.354.582-2.577 1.429-3.598 2.493l-34.737 36.221-115.954 49.806c-2.681 1.151-4.795 3.32-5.876 6.03-1.081 2.71-1.042 5.738.109 8.418l21.773 50.69c1.79 4.167 5.849 6.662 10.112 6.662 1.449 0 2.921-.288 4.336-.896l115.955-49.806 50.186-.255c1.475-.008 2.932-.311 4.286-.893l56.055-24.078c2.681-1.151 4.794-3.32 5.876-6.03s1.043-5.737-.109-8.418zm-68.452 17.431-50.186.255c-1.475.008-2.932.312-4.286.893l-107.899 46.346-13.091-30.477 107.899-46.346c1.354-.582 2.578-1.429 3.599-2.493l34.737-36.221 43.896-18.855 29.227 68.042z"/><path d="m195.531 310.415-15.628 6.712c-5.582 2.397-8.164 8.866-5.767 14.448 1.79 4.167 5.848 6.662 10.112 6.662 1.448 0 2.921-.288 4.336-.896l15.628-6.712c5.582-2.397 8.164-8.866 5.767-14.448s-8.866-8.165-14.448-5.766z"/></g></g><g/><g/><g/><g/><g/><g/><g/><g/><g/><g/><g/><g/><g/><g/><g/></svg>