<svg id="Capa_1" enable-background="new 0 0 512.007 512.007" viewBox="0 0 512.007 512.007" xmlns="http://www.w3.org/2000/svg"><g><path d="m411.957 160.774c0-31.92-17.934-60.569-46.184-74.604-3.788-17.318-13.065-33.072-26.532-44.867-15.181-13.296-34.667-20.619-54.868-20.619-6.996 0-13.914.871-20.649 2.595-15.469-14.871-36.139-23.275-57.745-23.275-21.605 0-42.275 8.405-57.744 23.276-6.735-1.724-13.653-2.595-20.649-2.595-20.201 0-39.688 7.323-54.869 20.619-13.468 11.794-22.745 27.548-26.533 44.866-28.25 14.035-46.184 42.684-46.184 74.604 0 14.924 3.945 29.375 11.459 42.143-2.735 7.797-4.118 15.944-4.118 24.297 0 33.765 23.163 62.967 55.145 71.264 6.083 50.334 35.295 93.973 77.26 119.287v9.64c0 29.128-18.695 54.482-46.521 63.091-5.197 1.608-8.438 6.774-7.625 12.153.812 5.379 5.436 9.356 10.876 9.356h219.009c5.44 0 10.063-3.977 10.876-9.356s-2.428-10.544-7.625-12.153c-27.826-8.609-46.522-33.963-46.522-63.091v-9.497c14.896-8.952 28.387-20.33 39.915-33.853l-16.742-14.272c-22.799 26.744-54.472 43.813-89.298 48.158-70.088-8.743-122.784-68.304-122.784-139.069v-54.089c0-29.258 16.095-55.621 42.002-68.799 50.583-25.73 110.98-25.73 161.565 0 25.907 13.179 42.001 39.541 42.001 68.8v54.089c0 18.064-3.407 35.677-10.128 52.349l20.404 8.226c5.332-13.228 8.861-26.964 10.555-41.026 31.849-8.383 54.915-37.561 54.915-71.205 0-8.354-1.384-16.501-4.119-24.298 7.512-12.77 11.457-27.22 11.457-42.145zm-205.869 279.244c.422 0 .844-.024 1.264-.073 14.895-1.723 29.299-5.463 42.89-11.026.309 18.386 6.212 35.9 17.152 50.735 2.732 3.705 5.716 7.16 8.928 10.349h-140.685c3.211-3.188 6.195-6.644 8.927-10.349 10.957-14.858 16.862-32.403 17.154-50.821 13.504 5.554 27.96 9.359 43.107 11.111.419.05.841.074 1.263.074zm172.07-233.794c2.959 6.64 4.459 13.702 4.459 20.989 0 21.142-12.985 39.767-31.746 47.64v-50.072c0-10.634-1.661-20.971-4.793-30.713l13.255-7.039c5.365-2.849 7.405-9.509 4.556-14.874-2.85-5.366-9.51-7.405-14.874-4.556l-11.996 6.371c-5.398-9.104-12.249-17.326-20.363-24.318l12.966-14.245c4.09-4.493 3.763-11.45-.73-15.539s-11.45-3.763-15.539.73l-15.057 16.543c-.484-.256-.961-.521-1.45-.769-7.981-4.059-16.185-7.528-24.54-10.447l7.365-19.366c2.16-5.678-.692-12.032-6.371-14.192-5.679-2.159-12.032.693-14.191 6.372l-8.01 21.062c-11.239-2.579-22.656-4.185-34.118-4.805v-25.069c0-6.075-4.925-11-11-11s-11 4.925-11 11v25.08c-11.458.632-22.869 2.25-34.101 4.839l-8.028-21.107c-2.159-5.679-8.518-8.532-14.191-6.371-5.679 2.16-8.531 8.514-6.371 14.192l7.391 19.432c-8.288 2.906-16.428 6.351-24.348 10.38-.539.274-1.064.565-1.596.847l-15.128-16.621c-4.091-4.493-11.048-4.82-15.539-.73-4.493 4.089-4.82 11.046-.73 15.539l13.06 14.348c-8.087 6.991-14.913 15.209-20.292 24.302l-12.165-6.457c-5.364-2.851-12.024-.81-14.874 4.555-2.85 5.366-.811 12.025 4.556 14.875l13.438 7.137c-3.112 9.713-4.76 20.016-4.76 30.615v50.164c-18.884-7.814-31.962-26.483-31.962-47.732 0-7.287 1.5-14.349 4.459-20.99 1.56-3.501 1.185-7.562-.99-10.718-7.072-10.263-10.81-22.273-10.81-34.732 0-25.02 14.972-47.31 38.143-56.787 3.619-1.48 6.18-4.77 6.728-8.641 4.246-30.022 30.348-52.662 60.715-52.662 6.933 0 13.762 1.162 20.296 3.453 4.243 1.49 8.962.244 11.92-3.139 11.668-13.342 28.499-20.994 46.178-20.994 17.68 0 34.511 7.652 46.179 20.994 2.958 3.383 7.676 4.626 11.92 3.139 6.534-2.291 13.363-3.453 20.296-3.453 30.366 0 56.468 22.64 60.714 52.662.548 3.871 3.108 7.161 6.728 8.641 23.171 9.477 38.143 31.767 38.143 56.787 0 12.46-3.738 24.47-10.81 34.731-2.177 3.156-2.553 7.218-.992 10.719z"/><g fill="#3cc"><path d="m271.886 198.973c1.305.619 2.606 1.253 3.898 1.91 1.598.813 3.301 1.199 4.979 1.199 4.007 0 7.871-2.198 9.812-6.014 2.755-5.415.6-12.037-4.815-14.792-1.388-.707-2.846-1.42-4.455-2.183-5.492-2.603-12.05-.259-14.65 5.23-2.601 5.49-.259 12.049 5.231 14.65z"/><path d="m195.002 173.258c-.806-6.021-6.343-10.253-12.362-9.443-2.696.361-4.952.705-7.1 1.082-5.984 1.05-9.983 6.751-8.935 12.735.938 5.341 5.58 9.102 10.822 9.102.631 0 1.271-.055 1.913-.167 1.848-.324 3.823-.625 6.219-.945 6.022-.807 10.25-6.342 9.443-12.364z"/><path d="m232.831 186.567c.644.113 1.284.167 1.915.167 5.241 0 9.884-3.76 10.821-9.1 1.051-5.984-2.948-11.686-8.932-12.737-2.149-.377-4.406-.721-7.102-1.082-6.03-.809-11.557 3.422-12.362 9.443-.807 6.021 3.421 11.557 9.442 12.363 2.395.321 4.37.621 6.218.946z"/><path d="m130.868 179.092c-1.609.763-3.067 1.477-4.455 2.183-5.415 2.755-7.57 9.377-4.815 14.792 1.941 3.817 5.805 6.014 9.812 6.014 1.678 0 3.382-.386 4.979-1.199 1.292-.657 2.594-1.291 3.898-1.91 5.49-2.601 7.832-9.16 5.23-14.65-2.6-5.489-9.16-7.832-14.649-5.23z"/><path d="m137.104 321.164c-2.677-5.454-9.268-7.702-14.722-5.027-5.453 2.677-7.704 9.269-5.026 14.722.784 1.598 1.629 3.221 2.51 4.825 2.003 3.644 5.767 5.705 9.65 5.705 1.791 0 3.607-.438 5.288-1.362 5.324-2.926 7.269-9.614 4.343-14.938-.719-1.309-1.406-2.629-2.043-3.925z"/><path d="m116.858 294.348c6.07-.251 10.787-5.375 10.536-11.445-.062-1.501-.092-2.821-.092-4.033 0-6.075-4.925-11-11-11s-11 4.925-11 11c0 1.518.036 3.134.111 4.941.244 5.916 5.116 10.546 10.982 10.546.155 0 .309-.003.463-.009z"/><path d="m168.885 358.047c-1.308-.902-2.649-1.884-4.101-3.003-4.812-3.709-11.719-2.816-15.428 1.996-3.709 4.811-2.815 11.718 1.996 15.428 1.762 1.358 3.41 2.564 5.04 3.689 1.907 1.315 4.082 1.946 6.236 1.946 3.494 0 6.931-1.662 9.064-4.755 3.451-5.001 2.194-11.852-2.807-15.301z"/><path d="m207.861 373.748c-.679-.111-1.351-.244-2.023-.375l-.702-.137c-5.964-1.152-11.733 2.755-12.883 8.72-1.148 5.966 2.756 11.733 8.721 12.882l.647.126c.895.175 1.788.348 2.691.495.601.098 1.198.146 1.788.146 5.294 0 9.96-3.832 10.842-9.227.981-5.995-3.085-11.65-9.081-12.63z"/><path d="m206.087 208.422c-6.075 0-11 4.925-11 11v22.525c0 6.075 4.925 11 11 11s11-4.925 11-11v-22.525c0-6.075-4.925-11-11-11z"/><path d="m511.476 466.641c-1.698-10.277-7.297-19.277-15.766-25.344l-247.194-177.109c-2.37-1.698-5.317-2.385-8.199-1.91-2.878.476-5.45 2.075-7.148 4.447-21.513 30.033-14.581 71.97 15.452 93.483l40.117 28.736c3.404 2.439 7.901 2.732 11.596.756 6.15-3.291 13.362-3.207 19.359.086l-2.036 12.323c-.684 4.133 1.04 8.294 4.445 10.734l128.186 91.864c6.864 4.917 14.796 7.281 22.658 7.281 12.16 0 24.152-5.658 31.758-16.276 6.066-8.469 8.471-18.793 6.772-29.071zm-214.955-99.181-35.091-25.136c-17.087-12.24-23.04-34.325-15.678-53.053l80.965 57.996-3.335 20.182c-8.669-2.927-18.071-2.954-26.861.011zm190.297 115.441c-5.458 7.622-16.1 9.378-23.719 3.922l-122.623-87.877 6.18-37.394 136.239 97.628c.001 0 .001.001.002.001 3.691 2.644 6.133 6.567 6.873 11.047s-.307 8.982-2.952 12.673z"/></g></g><g/><g/><g/><g/><g/><g/><g/><g/><g/><g/><g/><g/><g/><g/><g/></svg>