<svg id="Capa_1" enable-background="new 0 0 511.973 511.973" viewBox="0 0 511.973 511.973" xmlns="http://www.w3.org/2000/svg"><g id="Facial_Massage_2_"><g><path d="m102.495 490.775c-2.917 0-5.715-1.159-7.778-3.222 0 0-91.494-91.494-91.494-91.494-2.068-2.068-3.228-4.875-3.222-7.799s1.176-5.727 3.252-7.787c0 0 105.955-105.144 105.955-105.144 13.568-13.568 31.648-21.057 50.878-21.057h157.722c24.156-.123 43.546 21.061 41.344 45.102l47.773-47.775c26.809-27.937 75.046-27.941 101.853.001 4.257 4.098 4.263 11.462-.003 15.559-25.332 25.311-64.056 64.026-92.263 92.229-25.071 25.069-58.441 38.875-93.962 38.875h-122.184c-26.677 26.538-61.852 61.025-90.093 89.289-2.063 2.064-4.861 3.223-7.778 3.223zm-75.909-102.464 75.915 75.915c26.602-26.574 61.524-60.761 85.535-84.74 2.063-2.063 4.861-3.222 7.778-3.222 196.163-2.477 149.238 23.056 288.771-116.035-19.012-12.434-46.24-9.508-62.105 6.928 0 0-49.024 49.025-49.024 49.025-13.599 13.598-31.679 21.087-50.909 21.087h-126.732c-6.075 0-11-4.925-11-11s4.925-11 11-11h122.09c10.697 0 19.399-8.747 19.399-19.498s-8.747-19.498-19.498-19.498h-157.721c-13.354 0-25.909 5.2-35.353 14.643z"/></g><g><path d="m317.806 225.581c-39.595 0-71.808-32.213-71.808-71.808 0-35.974 56.333-118.568 62.757-127.867 4.175-6.267 13.922-6.288 18.101 0 6.424 9.299 62.757 91.893 62.757 127.867.001 39.595-32.212 71.808-71.807 71.808zm0-173.671c-22.156 33.95-49.808 82.655-49.808 101.863 0 27.464 22.344 49.808 49.808 49.808s49.808-22.344 49.808-49.808c0-19.208-27.652-67.913-49.808-101.863z" fill="#3cc"/></g></g><g/><g/><g/><g/><g/><g/><g/><g/><g/><g/><g/><g/><g/><g/><g/></svg>