<svg version="1.1" id="Capa_1" xmlns="http://www.w3.org/2000/svg" xmlns:xlink="http://www.w3.org/1999/xlink" x="0px" y="0px" viewBox="0 0 512 512" style="enable-background:new 0 0 512 512;" xml:space="preserve">
<g>
	<g>
		<g>
			
				<line style="fill:none;stroke:#33CCCC;stroke-width:22;stroke-linecap:round;stroke-linejoin:round;stroke-miterlimit:10;" x1="137.315" y1="137.448" x2="85.29" y2="85.326"/>
			
				<line style="fill:none;stroke:#33CCCC;stroke-width:22;stroke-linecap:round;stroke-linejoin:round;stroke-miterlimit:10;" x1="97.425" y1="191.066" x2="45.401" y2="179.903"/>
			
				<line style="fill:none;stroke:#33CCCC;stroke-width:22;stroke-linecap:round;stroke-linejoin:round;stroke-miterlimit:10;" x1="190.832" y1="97.483" x2="179.69" y2="45.361"/>
		</g>
		<g>
			
				<line style="fill:none;stroke:#33CCCC;stroke-width:22;stroke-linecap:round;stroke-linejoin:round;stroke-miterlimit:10;" x1="373.797" y1="374.377" x2="425.822" y2="426.499"/>
			
				<line style="fill:none;stroke:#33CCCC;stroke-width:22;stroke-linecap:round;stroke-linejoin:round;stroke-miterlimit:10;" x1="413.687" y1="320.758" x2="465.711" y2="331.921"/>
			
				<line style="fill:none;stroke:#33CCCC;stroke-width:22;stroke-linecap:round;stroke-linejoin:round;stroke-miterlimit:10;" x1="320.28" y1="414.342" x2="331.422" y2="466.464"/>
		</g>
	</g>
	<g>
		<g>
			<g>
				<path style="fill:none;stroke:#000000;stroke-width:22;stroke-linecap:round;stroke-linejoin:round;stroke-miterlimit:10;" d="&#10;&#9;&#9;&#9;&#9;&#9;M132.095,235.393c-5.075,0.739-10.125,1.909-15.107,3.513c-23.396,7.531-42.458,23.726-53.674,45.602l-42.163,82.233&#10;&#9;&#9;&#9;&#9;&#9;c-23.168,45.188-5.325,100.833,39.775,124.045c21.834,11.237,46.743,13.278,70.138,5.747&#10;&#9;&#9;&#9;&#9;&#9;c23.396-7.531,42.458-23.726,53.674-45.602l42.163-82.233c18.12-35.343,11.153-77.084-14.322-104.7l-6.789-5.89"/>
				<path style="fill:none;stroke:#000000;stroke-width:22;stroke-linecap:round;stroke-linejoin:round;stroke-miterlimit:10;" d="&#10;&#9;&#9;&#9;&#9;&#9;M112.587,307.969c-0.277,0.486-0.545,0.981-0.803,1.484l-42.164,82.234c-9.439,18.409-2.17,41.08,16.205,50.536&#10;&#9;&#9;&#9;&#9;&#9;c18.374,9.456,41.002,2.173,50.441-16.237l42.163-82.233c1.828-3.566,3.03-7.291,3.645-11.049"/>
			</g>
			<path style="fill:none;stroke:#000000;stroke-width:22;stroke-linecap:round;stroke-linejoin:round;stroke-miterlimit:10;" d="&#10;&#9;&#9;&#9;&#9;M114.587,299.962l30.783-108.896l28.885,34.306l44.978-18.849l-32.32,114.255c-2.718,9.475-8.979,17.335-17.63,22.134&#10;&#9;&#9;&#9;&#9;s-18.623,5.942-28.08,3.219l-1.323-0.389C120.307,340.106,108.962,319.573,114.587,299.962z"/>
		</g>
		<g>
			<g>
				<path style="fill:none;stroke:#000000;stroke-width:22;stroke-linecap:round;stroke-linejoin:round;stroke-miterlimit:10;" d="&#10;&#9;&#9;&#9;&#9;&#9;M376.375,273.175c5.216,0.188,9.476-0.003,12.135-0.748c23.665-6.631,43.33-22.085,55.371-43.515l45.265-80.56&#10;&#9;&#9;&#9;&#9;&#9;c12.041-21.43,15.029-46.29,8.412-70.001c-6.618-23.711-22.042-43.412-43.432-55.477c-21.389-12.064-46.203-15.055-69.869-8.425&#10;&#9;&#9;&#9;&#9;&#9;c-23.665,6.631-43.33,22.084-55.372,43.515l-45.266,80.561c-12.041,21.43-15.028,46.29-8.411,70.001&#10;&#9;&#9;&#9;&#9;&#9;c3.7,13.256,10.153,25.259,18.862,35.375l7.569,9.96"/>
				<path style="fill:none;stroke:#000000;stroke-width:22;stroke-linecap:round;stroke-linejoin:round;stroke-miterlimit:10;" d="&#10;&#9;&#9;&#9;&#9;&#9;M395.875,203.029c0.177-0.296,0.351-0.596,0.521-0.898l45.265-80.56c10.134-18.036,3.734-40.967-14.267-51.12&#10;&#9;&#9;&#9;&#9;&#9;s-40.889-3.739-51.023,14.296l-45.266,80.561c-0.69,1.229-1.304,2.48-1.842,3.749"/>
			</g>
			<path style="fill:none;stroke:#000000;stroke-width:22;stroke-linecap:round;stroke-linejoin:round;stroke-miterlimit:10;" d="&#10;&#9;&#9;&#9;&#9;M394.991,203.527l-30.783,108.896l-28.885-34.306l-44.978,18.849l32.32-114.255c2.718-9.475,8.979-17.335,17.63-22.134&#10;&#9;&#9;&#9;&#9;c8.651-4.798,18.623-5.942,28.08-3.219l1.323,0.389C389.271,163.383,400.616,183.916,394.991,203.527z"/>
		</g>
	</g>
</g>
<g>
</g>
<g>
</g>
<g>
</g>
<g>
</g>
<g>
</g>
<g>
</g>
<g>
</g>
<g>
</g>
<g>
</g>
<g>
</g>
<g>
</g>
<g>
</g>
<g>
</g>
<g>
</g>
<g>
</g>
</svg>