<svg width="512" height="512" viewBox="0 0 512 512" fill="none" xmlns="http://www.w3.org/2000/svg">
<g clip-path="url(#clip0_208_2)">
<path d="M137.315 137.448L85.29 85.3257" stroke="#E2AA5C" stroke-width="22" stroke-miterlimit="10" stroke-linecap="round" stroke-linejoin="round"/>
<path d="M97.425 191.066L45.401 179.903" stroke="#E2AA5C" stroke-width="22" stroke-miterlimit="10" stroke-linecap="round" stroke-linejoin="round"/>
<path d="M190.832 97.4828L179.69 45.3608" stroke="#E2AA5C" stroke-width="22" stroke-miterlimit="10" stroke-linecap="round" stroke-linejoin="round"/>
<path d="M373.797 374.377L425.822 426.499" stroke="#E2AA5C" stroke-width="22" stroke-miterlimit="10" stroke-linecap="round" stroke-linejoin="round"/>
<path d="M413.687 320.758L465.711 331.921" stroke="#E2AA5C" stroke-width="22" stroke-miterlimit="10" stroke-linecap="round" stroke-linejoin="round"/>
<path d="M320.28 414.342L331.422 466.464" stroke="#E2AA5C" stroke-width="22" stroke-miterlimit="10" stroke-linecap="round" stroke-linejoin="round"/>
<path d="M132.095 235.393C127.02 236.132 121.97 237.302 116.988 238.906C93.592 246.437 74.53 262.632 63.314 284.508L21.151 366.741C-2.01698 411.929 15.826 467.574 60.926 490.786C82.76 502.023 107.669 504.064 131.064 496.533C154.46 489.002 173.522 472.807 184.738 450.931L226.901 368.698C245.021 333.355 238.054 291.614 212.579 263.998L205.79 258.108" stroke="#283C5D" stroke-width="22" stroke-miterlimit="10" stroke-linecap="round" stroke-linejoin="round"/>
<path d="M112.587 307.969C112.31 308.455 112.042 308.95 111.784 309.453L69.62 391.687C60.181 410.096 67.45 432.767 85.825 442.223C104.199 451.679 126.827 444.396 136.266 425.986L178.429 343.753C180.257 340.187 181.459 336.462 182.074 332.704" stroke="#283C5D" stroke-width="22" stroke-miterlimit="10" stroke-linecap="round" stroke-linejoin="round"/>
<path d="M114.587 299.962L145.37 191.066L174.255 225.372L219.233 206.523L186.913 320.778C184.195 330.253 177.934 338.113 169.283 342.912C160.632 347.711 150.66 348.854 141.203 346.131L139.88 345.742C120.307 340.106 108.962 319.573 114.587 299.962Z" stroke="#283C5D" stroke-width="22" stroke-miterlimit="10" stroke-linecap="round" stroke-linejoin="round"/>
<path d="M376.375 273.175C381.591 273.363 385.851 273.172 388.51 272.427C412.175 265.796 431.84 250.342 443.881 228.912L489.146 148.352C501.187 126.922 504.175 102.062 497.558 78.3509C490.94 54.6399 475.516 34.9389 454.126 22.8739C432.737 10.8099 407.923 7.8189 384.257 14.4489C360.592 21.0799 340.927 36.5329 328.885 57.9639L283.619 138.525C271.578 159.955 268.591 184.815 275.208 208.526C278.908 221.782 285.361 233.785 294.07 243.901L301.639 253.861" stroke="#283C5D" stroke-width="22" stroke-miterlimit="10" stroke-linecap="round" stroke-linejoin="round"/>
<path d="M395.875 203.029C396.052 202.733 396.226 202.433 396.396 202.131L441.661 121.571C451.795 103.535 445.395 80.6041 427.394 70.4511C409.393 60.2981 386.505 66.7121 376.371 84.7471L331.105 165.308C330.415 166.537 329.801 167.788 329.263 169.057" stroke="#283C5D" stroke-width="22" stroke-miterlimit="10" stroke-linecap="round" stroke-linejoin="round"/>
<path d="M394.991 203.527L364.208 312.423L335.323 278.117L290.345 296.966L322.665 182.711C325.383 173.236 331.644 165.376 340.295 160.577C348.946 155.779 358.918 154.635 368.375 157.358L369.698 157.747C389.271 163.383 400.616 183.916 394.991 203.527Z" stroke="#283C5D" stroke-width="22" stroke-miterlimit="10" stroke-linecap="round" stroke-linejoin="round"/>
</g>
<defs>
<clipPath id="clip0_208_2">
<rect width="512" height="512" fill="white"/>
</clipPath>
</defs>
</svg>
