<svg id="Capa_1" enable-background="new 0 0 512 512" viewBox="0 0 512 512" xmlns="http://www.w3.org/2000/svg"><g><g><path d="m451.681 333.752c-41.485-53.929-70.432-117.696-83.711-184.408l-13.692-68.706c-9.287-46.725-50.618-80.638-98.278-80.638-47.647 0-88.978 33.912-98.276 80.632l-13.693 68.714c-13.282 66.723-42.229 130.489-83.714 184.41-12.018 15.637-18.636 35.102-18.636 54.808 0 49.564 40.323 89.888 89.888 89.888h57.382c15.429 20.643 39.96 33.548 67.049 33.548 27.09 0 51.621-12.905 67.05-33.548h57.382c49.565 0 89.888-40.324 89.888-89.888-.001-19.706-6.619-39.17-18.639-54.812zm-71.249 122.7h-45.597c.936-2.628 1.764-5.315 2.446-8.072l.959-3.875c4.533-18.32 20.88-31.115 39.753-31.115 6.075 0 11-4.925 11-11s-4.925-11-11-11c-29.013 0-54.142 19.669-61.109 47.83-7.211 28.842-29.972 50.78-60.884 50.78-30.502 0-53.805-22.203-60.884-50.778-6.967-28.163-32.096-47.832-61.108-47.832-6.075 0-11 4.925-11 11s4.925 11 11 11c18.873 0 35.221 12.795 39.753 31.118.943 3.813 2.025 8.069 3.406 11.944h-45.598c-37.434 0-67.888-30.454-67.888-67.888 0-14.885 5-29.588 14.075-41.398 43.534-56.583 73.912-123.503 87.85-193.523l13.694-68.714c7.258-36.463 39.515-62.929 76.7-62.929 37.196 0 69.453 26.464 76.7 62.932l13.693 68.709c13.935 70.009 44.313 136.929 87.847 193.52 9.079 11.815 14.079 26.519 14.079 41.403 0 37.434-30.454 67.888-67.887 67.888z"/><g fill="#3cc"><path d="m88.079 205.954v-31.282c0-6.075-4.925-11-11-11s-11 4.925-11 11v5.938l-30.023-29.987c-4.297-4.293-11.262-4.289-15.557.009-4.293 4.298-4.289 11.263.01 15.556l30.051 30.014h-6.011c-6.075 0-11 4.925-11 11s4.925 11 11 11h32.161c.15.006.3.021.45.021 2.817 0 5.635-1.076 7.783-3.227 2.469-2.469 3.509-5.822 3.136-9.042z"/><path d="m104.345 100.476v-31.53c0-6.075-4.925-11-11-11s-11 4.925-11 11v5.973l-30.019-30.017c-4.297-4.296-11.262-4.295-15.557 0-4.296 4.296-4.296 11.261 0 15.556l30.02 30.018h-5.976c-6.075 0-11 4.925-11 11s4.925 11 11 11h31.6c.326.029.654.047.981.047 2.815 0 5.631-1.074 7.778-3.222 2.416-2.414 3.473-5.672 3.173-8.825z"/><path d="m491.499 150.631c-4.294-4.298-11.259-4.299-15.557-.006l-30.021 29.998v-5.951c0-6.075-4.925-11-11-11s-11 4.925-11 11v31.318c-.367 3.216.674 6.562 3.14 9.03 2.148 2.15 4.965 3.225 7.781 3.225.29 0 .58-.019.87-.042h31.741c6.075 0 11-4.925 11-11s-4.925-11-11-11h-5.997l30.039-30.015c4.295-4.294 4.298-11.259.004-15.557z"/><path d="m475.23 44.902c-4.295-4.295-11.261-4.295-15.556.001l-30.019 30.023v-5.979c0-6.075-4.925-11-11-11s-11 4.925-11 11v32.531c0 6.075 4.925 11 11 11h32.531c6.075 0 11-4.925 11-11s-4.925-11-11-11h-5.97l30.014-30.019c4.297-4.297 4.296-11.262 0-15.557z"/></g></g><g><g><path d="m220.152 116.583c-.175 0-.35-.004-.526-.012-6.068-.286-10.756-5.437-10.471-11.505l1.344-28.53c.287-6.069 5.434-10.761 11.506-10.47 6.068.286 10.756 5.437 10.471 11.505l-1.344 28.53c-.279 5.892-5.144 10.482-10.98 10.482z" fill="#3cc"/></g><g><path d="m205.153 206.333c-.736 0-1.483-.074-2.232-.229-5.95-1.227-9.779-7.044-8.553-12.995 2.311-11.208 4.999-27.952 5.026-28.12.961-5.999 6.602-10.084 12.602-9.121 5.999.961 10.082 6.603 9.121 12.602-.113.705-2.794 17.398-5.202 29.081-1.072 5.202-5.652 8.782-10.762 8.782z" fill="#3cc"/></g><g><path d="m176.656 292.498c-1.692 0-3.409-.392-5.018-1.218-5.404-2.776-7.534-9.407-4.758-14.811 5.534-10.773 10.61-25.963 10.661-26.115 1.917-5.764 8.143-8.884 13.908-6.967 5.765 1.916 8.885 8.141 6.969 13.905-.227.686-5.65 16.93-11.97 29.23-1.948 3.795-5.8 5.976-9.792 5.976z" fill="#3cc"/></g><g><path d="m134.003 368.804c-2.557 0-5.125-.886-7.207-2.694-4.587-3.983-5.077-10.931-1.094-15.518 6.912-7.961 14.62-22.543 14.697-22.689 2.829-5.374 9.478-7.44 14.855-4.613 5.376 2.828 7.442 9.476 4.617 14.852-.362.688-8.961 16.973-17.559 26.874-2.173 2.505-5.233 3.788-8.309 3.788z" fill="#3cc"/></g></g><g><g><path d="m285.961 116.583c-5.837 0-10.701-4.59-10.978-10.482l-1.346-28.53c-.285-6.068 4.402-11.22 10.471-11.506 6.056-.285 11.22 4.401 11.506 10.47l1.345 28.53c.285 6.068-4.402 11.22-10.471 11.506-.176.008-.352.012-.527.012z" fill="#3cc"/></g><g><path d="m300.959 206.333c-5.11 0-9.689-3.58-10.762-8.781-2.408-11.682-5.09-28.375-5.203-29.081-.962-5.999 3.122-11.641 9.12-12.602 5.998-.957 11.641 3.122 12.603 9.12.027.168 2.719 16.921 5.027 28.121 1.227 5.95-2.603 11.768-8.553 12.995-.748.154-1.496.228-2.232.228z" fill="#3cc"/></g><g><path d="m329.455 292.498c-3.992 0-7.843-2.181-9.793-5.975-6.319-12.301-11.742-28.545-11.97-29.23-1.916-5.765 1.205-11.992 6.97-13.907 5.769-1.916 11.992 1.206 13.907 6.971.084.252 5.146 15.377 10.661 26.113 2.776 5.404.646 12.035-4.758 14.811-1.608.825-3.324 1.217-5.017 1.217z" fill="#3cc"/></g><g><path d="m372.109 368.804c-3.076 0-6.136-1.283-8.312-3.789-8.596-9.901-17.195-26.185-17.557-26.873-2.827-5.378-.76-12.028 4.618-14.855 5.378-2.826 12.025-.759 14.853 4.615.077.146 7.786 14.729 14.698 22.69 3.982 4.587 3.492 11.535-1.095 15.518-2.08 1.808-4.649 2.694-7.205 2.694z" fill="#3cc"/></g></g></g><g/><g/><g/><g/><g/><g/><g/><g/><g/><g/><g/><g/><g/><g/><g/></svg>