<svg id="Layer_1" enable-background="new 0 0 512 512" viewBox="0 0 512 512" xmlns="http://www.w3.org/2000/svg"><g><path d="m376.994 245c-39.149 0-71 31.851-71 71v98.907c0 41.407-33.687 75.093-75.093 75.093-41.407 0-75.094-33.687-75.094-75.093v-38.945h-22v38.945c0 53.538 43.556 97.093 97.094 97.093 53.537 0 97.093-43.556 97.093-97.093v-98.907c0-27.019 21.981-49 49-49h8.113v-22z" fill="#3cc"/><g><path d="m278.615 170.249h-11.548v-107.249c0-22.607-18.393-41-41-41h-1.065v-11c0-6.075-4.925-11-11-11h-22c-18.196 0-33 14.804-33 33s14.804 33 33 33h22c6.075 0 11-4.925 11-11v-11h1.065c10.477 0 19 8.523 19 19v107.249h-18.325c-6.075 0-11 4.925-11 11 0 39.113-31.821 70.935-70.935 70.935s-70.935-31.821-70.935-70.935c0-6.075-4.925-11-11-11h-14.935v-107.249c0-10.477 8.523-19 19-19h1.064v11c0 6.075 4.925 11 11 11h22c18.196 0 33-14.804 33-33s-14.804-33-33-33h-22c-6.075 0-11 4.925-11 11v11h-1.064c-22.607 0-41 18.393-41 41v107.249h-14.937c-6.075 0-11 4.925-11 11 0 67.086 45.858 123.656 107.871 140.026v54.687c0 6.075 4.925 11 11 11h51.872c6.075 0 11-4.925 11-11v-54.687c62.013-16.371 107.871-72.941 107.871-140.026.001-6.076-4.924-11-10.999-11zm-75.614-126.249h-11c-6.065 0-11-4.935-11-11s4.935-11 11-11h11zm-113-22h11c6.065 0 11 4.935 11 11s-4.935 11-11 11h-11zm69.743 342.961h-29.872v-39.672c4.911.505 9.893.766 14.936.766s10.025-.261 14.937-.766v39.672zm-14.937-60.905c-64.009 0-116.736-49.226-122.318-111.807h30.031c5.459 46.078 44.765 81.935 92.287 81.935s86.828-35.856 92.287-81.935h30.032c-5.582 62.581-58.31 111.807-122.319 111.807z"/><path d="m443.053 187.054c-38.018 0-68.946 30.929-68.946 68.946s30.929 68.946 68.946 68.946 68.947-30.929 68.947-68.946-30.929-68.946-68.947-68.946zm0 115.892c-25.887 0-46.946-21.06-46.946-46.946s21.06-46.946 46.946-46.946 46.947 21.06 46.947 46.946-21.06 46.946-46.947 46.946z"/><path d="m453.21 251.79c-2.688-7.104-12.735-9.081-17.94-3.57-6.879 6.817-1.914 18.839 7.781 18.78 7.585.217 13.278-8.283 10.159-15.21z"/></g></g><g/><g/><g/><g/><g/><g/><g/><g/><g/><g/><g/><g/><g/><g/><g/></svg>