<svg id="Capa_1" enable-background="new 0 0 512 512" viewBox="0 0 512 512" xmlns="http://www.w3.org/2000/svg"><g><g fill="#3cc"><path d="m156.225 303.565c-1.138-6.562-1.714-13.297-1.714-20.017 0-6.075-4.925-11-11-11s-11 4.925-11 11c0 7.975.686 15.974 2.036 23.773.928 5.351 5.574 9.124 10.826 9.124.623 0 1.256-.053 1.891-.164 5.986-1.036 9.998-6.73 8.961-12.716z"/><path d="m167.816 337.63c-2.828-5.376-9.478-7.443-14.856-4.614-5.377 2.829-7.442 9.48-4.614 14.856 6.681 12.7 15.272 24.254 25.536 34.342 2.143 2.105 4.927 3.155 7.71 3.155 2.847 0 5.693-1.099 7.846-3.289 4.259-4.333 4.198-11.297-.134-15.556-8.639-8.49-15.868-18.212-21.488-28.894z"/><path d="m252.81 398.5c-11.938-1.857-23.462-5.556-34.25-10.995-5.423-2.732-12.039-.553-14.773 4.872-2.735 5.425-.554 12.039 4.871 14.774 12.842 6.473 26.56 10.877 40.771 13.087.572.089 1.142.132 1.704.132 5.329 0 10.011-3.881 10.855-9.311.934-6.002-3.175-11.625-9.178-12.559z"/><path d="m388.717 333.074c-5.377-2.83-12.026-.767-14.858 4.607-5.624 10.678-12.857 20.396-21.5 28.882-4.335 4.257-4.398 11.221-.142 15.556 2.154 2.193 5 3.293 7.85 3.293 2.781 0 5.564-1.049 7.706-3.151 10.269-10.084 18.865-21.633 25.551-34.328 2.83-5.376.768-12.028-4.607-14.859z"/><path d="m323.088 387.532c-10.789 5.432-22.314 9.125-34.255 10.977-6.003.931-10.115 6.552-9.185 12.555.842 5.433 5.525 9.316 10.856 9.316.561 0 1.128-.043 1.699-.131 14.213-2.204 27.933-6.6 40.778-13.067 5.426-2.732 7.609-9.345 4.878-14.771-2.731-5.427-9.343-7.612-14.771-4.879z"/><path d="m398.19 272.548c-6.075 0-11 4.925-11 11 0 6.72-.576 13.455-1.714 20.017-1.037 5.986 2.975 11.679 8.961 12.716.636.11 1.268.164 1.891.164 5.251 0 9.898-3.773 10.826-9.124 1.351-7.799 2.036-15.798 2.036-23.773 0-6.075-4.924-11-11-11z"/></g><g><path d="m321.094 313.611c-4.659-3.898-11.597-3.283-15.496 1.377-8.638 10.323-21.303 16.244-34.747 16.244s-26.109-5.92-34.747-16.244c-3.898-4.66-10.836-5.276-15.496-1.377-4.659 3.898-5.275 10.836-1.377 15.495 12.83 15.332 31.645 24.125 51.62 24.125s38.79-8.793 51.62-24.125c3.898-4.659 3.282-11.597-1.377-15.495z"/><path d="m449.011 224.367c0-24.246-17.069-44.581-39.82-49.622v-42.085l7.854-11.948c8.301-12.626 12.688-27.286 12.688-42.394v-1.05c-.001-42.605-34.627-77.268-77.188-77.268h-157.902c-26.029 0-50.161 12.949-64.554 34.639-10.305 15.53-27.584 24.802-46.223 24.802h-9.877c-4.175 0-7.99 2.364-9.85 6.102-1.858 3.738-1.441 8.207 1.078 11.536l17.598 23.251c12.909 17.056 30.229 30.1 49.695 38.029v36.386c-22.751 5.041-39.82 25.375-39.82 49.622 0 23.868 16.538 43.946 38.758 49.375l-3.51 33.463c-4.239 40.431 8.932 80.944 36.137 111.151 7.808 8.67 16.585 16.272 26.087 22.715-4.277 19.242-12.662 37.555-24.493 53.329-2.5 3.333-2.902 7.793-1.039 11.52s5.672 6.081 9.839 6.081h192.764c4.167 0 7.976-2.354 9.839-6.081s1.461-8.187-1.039-11.52c-11.831-15.775-20.216-34.087-24.493-53.329 9.502-6.442 18.279-14.045 26.087-22.715 27.205-30.208 40.376-70.721 36.137-111.151l-3.51-33.463c22.219-5.429 38.757-25.507 38.757-49.375zm-348.653-137.313-4.903-6.478c21.48-3.229 40.738-15.347 52.966-33.774 10.305-15.53 27.584-24.802 46.222-24.802h157.902c30.431 0 55.188 24.793 55.188 55.269v1.05c0 10.801-3.137 21.282-9.07 30.309l-1.291 1.964c-21.45-17.241-47.925-26.603-75.84-26.603h-16.307c-24.729 0-48.56 7.424-68.912 21.469l-3.009 2.076c-16.662 11.499-36.171 17.577-56.417 17.577-29.885-.002-58.494-14.228-76.529-38.057zm246.603 402.946h-152.221c6.656-11.839 11.81-24.518 15.31-37.642 18.851 8.804 39.587 13.53 60.8 13.53s41.949-4.727 60.8-13.53c3.501 13.124 8.655 25.803 15.311 37.642zm51.229-236.812c-3.117 0-6.088 1.322-8.174 3.639s-3.091 5.409-2.767 8.509l4.632 44.164c3.592 34.24-7.563 68.551-30.604 94.134-23.04 25.583-56 40.255-90.428 40.255s-67.388-14.672-90.428-40.255-34.195-59.894-30.604-94.134l4.632-44.164c.324-3.1-.681-6.192-2.767-8.509s-5.057-3.639-8.174-3.639c-15.892 0-28.82-12.929-28.82-28.821s12.929-28.82 28.82-28.82c6.075 0 11-4.925 11-11v-39.621c7.327 1.431 14.817 2.183 22.376 2.183 24.73 0 48.56-7.424 68.912-21.469l3.009-2.076c16.662-11.499 36.171-17.577 56.417-17.577h16.307c24.429 0 47.509 8.766 65.659 24.799v53.76c0 6.075 4.925 11 11 11 15.892 0 28.82 12.929 28.82 28.82.003 15.893-12.926 28.822-28.818 28.822z"/></g></g><g/><g/><g/><g/><g/><g/><g/><g/><g/><g/><g/><g/><g/><g/><g/></svg>