<svg id="Capa_1" enable-background="new 0 0 512.299 512.299" viewBox="0 0 512.299 512.299" xmlns="http://www.w3.org/2000/svg"><g><g><path d="m256.299 453.695c-42.495 0-82.305-18.88-109.222-51.8-26.943-32.952-37.559-75.708-29.128-117.308 1.207-5.955 7.016-9.803 12.966-8.596 5.954 1.207 9.803 7.012 8.596 12.966-7.115 35.103 1.851 71.191 24.599 99.011 22.721 27.789 56.323 43.726 92.19 43.726 35.614 0 69.064-15.752 91.773-43.219 22.741-27.506 31.953-63.303 25.273-98.21-1.142-5.967 2.77-11.73 8.736-12.872 5.974-1.141 11.729 2.771 12.871 8.737 7.917 41.372-2.99 83.785-29.926 116.364-26.901 32.54-66.531 51.201-108.728 51.201z" fill="#3cc"/></g><path d="m142.086 28.14-24.261-24.26c-4.296-4.296-11.261-4.296-15.557 0l-24.535 24.536c-4.295 4.296-4.295 11.261 0 15.557 2.148 2.148 4.963 3.222 7.778 3.222s5.63-1.074 7.778-3.222l5.482-5.483v46.363c0 6.075 4.925 11 11 11s11-4.925 11-11v-46.914l5.758 5.758c4.296 4.296 11.261 4.296 15.557 0 4.295-4.296 4.295-11.261 0-15.557z" fill="#3cc"/><path d="m434.728 28.14-24.261-24.26c-2.064-2.063-4.861-3.222-7.778-3.222-1.507 0-2.979.315-4.337.897-1.875.747-3.491 1.993-4.693 3.576l-23.283 23.284c-4.296 4.296-4.296 11.26 0 15.556 2.148 2.148 4.963 3.222 7.778 3.222s5.631-1.074 7.778-3.222l5.482-5.483v46.364c0 6.075 4.925 11 11 11s11-4.925 11-11v-46.912l5.757 5.757c4.297 4.296 11.26 4.296 15.557 0 4.296-4.296 4.296-11.261 0-15.557z" fill="#3cc"/><path d="m511.408 332.632c-21.33-49.714-56.019-91.887-100.316-121.96-45.635-30.982-99.161-47.357-154.792-47.357s-109.157 16.376-154.793 47.357c-43.78 29.722-78.165 71.268-99.554 120.226-2.432 3.519-2.68 8.292-.25 12.136.192.303.408.579.623.857 21.452 48.686 55.679 90.091 99.144 119.86 45.745 31.331 99.284 47.891 154.83 47.891s109.085-16.56 154.83-47.891c44.232-30.295 78.908-72.636 100.278-122.444 1.188-2.77 1.188-5.906 0-8.675zm-255.109-147.318c89.454 0 171.347 47.06 217.579 122.521-64.6-34.009-138.248-51.823-215.337-51.823-.759 0-1.525.002-2.284.005-44.311.202-88.236 6.375-130.558 18.348-30.682 8.68-60.038 20.295-87.68 34.635 46.101-76.138 128.369-123.686 218.28-123.686zm54.063 127.257c0 29.81-24.252 54.062-54.062 54.062s-54.062-24.252-54.062-54.062c0-11.526 3.653-22.612 10.366-31.818 28.996-2.802 58.224-2.928 87.117-.378 6.89 9.28 10.641 20.511 10.641 32.196zm-54.063 177.07c-98.654 0-188.32-57.921-230.995-148.356 49.015-29.355 103.939-48.418 160.454-57.169-3.612 8.954-5.521 18.589-5.521 28.455 0 41.941 34.121 76.062 76.062 76.062s76.062-34.121 76.062-76.062c0-10.082-1.998-19.92-5.765-29.038 57.212 8.429 112.357 27.548 160.874 57.369-42.602 90.653-132.378 148.739-231.171 148.739z"/><g><g><path d="m353.307 133.977c-.954 0-1.924-.125-2.889-.387-.135-.037-13.57-3.685-22.523-6.196-5.849-1.641-9.261-7.712-7.621-13.561 1.641-5.849 7.71-9.262 13.562-7.621 8.863 2.486 22.212 6.111 22.346 6.147 5.863 1.592 9.325 7.635 7.734 13.498-1.329 4.897-5.767 8.12-10.609 8.12z" fill="#3cc"/></g><g><path d="m166.19 132.031c-4.523 0-8.761-2.811-10.364-7.316-2.036-5.724.953-12.015 6.677-14.051.539-.191 13.32-4.705 24.427-5.698 6.06-.534 11.395 3.926 11.936 9.977.54 6.051-3.926 11.395-9.977 11.936-6.933.62-16.075 3.467-19.012 4.512-1.219.434-2.464.64-3.687.64z" fill="#3cc"/></g><g><path d="m247.696 120.353c-5.719 0-10.547-4.424-10.961-10.217-.433-6.06 4.129-11.323 10.188-11.756 11.449-.817 24.998-.144 25.569-.115 6.066.309 10.733 5.477 10.426 11.543-.309 6.066-5.441 10.752-11.543 10.429-.126-.006-12.798-.633-22.884.088-.266.019-.531.028-.795.028z" fill="#3cc"/></g><g><path d="m92.288 162.102c-3.616 0-7.157-1.781-9.26-5.048-3.288-5.108-1.812-11.915 3.296-15.203 8.701-5.601 21.219-10.967 21.748-11.192 5.587-2.384 12.05.21 14.436 5.798 2.385 5.587-.21 12.05-5.798 14.436-.227.097-11.391 4.895-18.479 9.458-1.842 1.184-3.904 1.751-5.943 1.751z" fill="#3cc"/></g><g><path d="m24.777 213.084c-2.334 0-4.687-.74-6.683-2.27-4.822-3.695-5.735-10.6-2.04-15.422 5.847-7.63 18.247-17.442 19.642-18.536 4.781-3.75 11.695-2.913 15.444 1.868s2.913 11.695-1.868 15.444c-4.429 3.478-12.622 10.516-15.756 14.606-2.166 2.827-5.434 4.31-8.739 4.31z" fill="#3cc"/></g><g><path d="m427.652 167.072c-2.147 0-4.316-.627-6.221-1.936-.203-.139-10.234-6.997-17.884-10.54-5.513-2.553-7.911-9.092-5.358-14.604 2.555-5.513 9.092-7.911 14.605-5.358 9.39 4.349 20.625 12.046 21.099 12.372 5.007 3.441 6.276 10.289 2.835 15.296-2.134 3.103-5.576 4.77-9.076 4.77z" fill="#3cc"/></g><g><path d="m492.157 217.845c-3.229 0-6.43-1.416-8.602-4.136-2.302-2.878-9.438-11.204-14.748-15.104-4.896-3.596-5.95-10.48-2.354-15.377 3.598-4.897 10.48-5.951 15.378-2.355 8.615 6.327 17.889 17.82 18.917 19.109 3.79 4.749 3.012 11.67-1.736 15.459-2.027 1.618-4.45 2.404-6.855 2.404z" fill="#3cc"/></g></g></g><g/><g/><g/><g/><g/><g/><g/><g/><g/><g/><g/><g/><g/><g/><g/></svg>