<svg version="1.1" id="Capa_1" xmlns="http://www.w3.org/2000/svg" xmlns:xlink="http://www.w3.org/1999/xlink" x="0px" y="0px" viewBox="0 0 512 512" style="enable-background:new 0 0 512 512;" xml:space="preserve">
<g>
	<g>
		<g>
			
				<line style="fill:none;stroke:#33CCCC;stroke-width:22;stroke-linejoin:round;stroke-miterlimit:10;" x1="96.132" y1="446.643" x2="219.368" y2="323.406"/>
			
				<line style="fill:none;stroke:#33CCCC;stroke-width:22;stroke-linejoin:round;stroke-miterlimit:10;" x1="180.61" y1="284.648" x2="57.373" y2="407.884"/>
		</g>
		<g>
			
				<line style="fill:none;stroke:#33CCCC;stroke-width:22;stroke-linejoin:round;stroke-miterlimit:10;" x1="331.39" y1="446.643" x2="454.627" y2="323.406"/>
			
				<line style="fill:none;stroke:#33CCCC;stroke-width:22;stroke-linejoin:round;stroke-miterlimit:10;" x1="415.868" y1="284.648" x2="292.632" y2="407.884"/>
		</g>
	</g>
	<g>
		<path style="fill:none;stroke:#000000;stroke-width:22;stroke-linejoin:round;stroke-miterlimit:10;" d="M282.274,365.645&#10;&#9;&#9;&#9;c0-14.511-11.763-26.274-26.274-26.274s-26.274,11.763-26.274,26.274"/>
		<path style="fill:none;stroke:#000000;stroke-width:22;stroke-linecap:round;stroke-linejoin:round;stroke-miterlimit:10;" d="&#10;&#9;&#9;&#9;M47.016,365.645H11V86.4c0-22.649,23.27-37.831,44-28.707l0,0"/>
		<path style="fill:none;stroke:#000000;stroke-width:22;stroke-linecap:round;stroke-linejoin:round;stroke-miterlimit:10;" d="&#10;&#9;&#9;&#9;M464.984,365.645H501V86.4c0-22.649-23.27-37.831-44-28.707l0,0"/>
		
			<circle style="fill:none;stroke:#000000;stroke-width:22;stroke-linecap:round;stroke-linejoin:round;stroke-miterlimit:10;" cx="138.371" cy="365.645" r="91.355"/>
		
			<circle style="fill:none;stroke:#000000;stroke-width:22;stroke-linecap:round;stroke-linejoin:round;stroke-miterlimit:10;" cx="373.629" cy="365.645" r="91.355"/>
	</g>
</g>
<g>
</g>
<g>
</g>
<g>
</g>
<g>
</g>
<g>
</g>
<g>
</g>
<g>
</g>
<g>
</g>
<g>
</g>
<g>
</g>
<g>
</g>
<g>
</g>
<g>
</g>
<g>
</g>
<g>
</g>
</svg>