<svg id="Capa_1" enable-background="new 0 0 512 512" viewBox="0 0 512 512" xmlns="http://www.w3.org/2000/svg"><g><g fill="#3cc"><path d="m256 197.623c-32.189 0-58.377 26.188-58.377 58.377s26.188 58.377 58.377 58.377 58.377-26.188 58.377-58.377c.001-32.189-26.187-58.377-58.377-58.377zm0 94.754c-20.059 0-36.377-16.319-36.377-36.377s16.319-36.377 36.377-36.377 36.377 16.319 36.377 36.377c.001 20.058-16.318 36.377-36.377 36.377z"/><path d="m256 166.038c6.075 0 11-4.925 11-11v-28.5c0-6.075-4.925-11-11-11s-11 4.925-11 11v28.5c0 6.075 4.925 11 11 11z"/><path d="m185.388 114.272c1.754 4.236 5.85 6.793 10.167 6.793 1.402 0 2.829-.27 4.205-.84 5.613-2.325 8.278-8.759 5.953-14.372l-10.906-26.331c-2.324-5.613-8.758-8.28-14.372-5.953-5.613 2.325-8.278 8.759-5.953 14.372z"/><path d="m176.831 192.387c2.148 2.148 4.963 3.222 7.778 3.222s5.63-1.074 7.778-3.222c4.295-4.296 4.295-11.261 0-15.557l-20.152-20.152c-4.296-4.296-11.261-4.296-15.557 0-4.295 4.296-4.295 11.261 0 15.557z"/><path d="m79.523 194.806 26.331 10.906c1.377.57 2.802.84 4.205.84 4.316 0 8.413-2.558 10.167-6.793 2.325-5.613-.34-12.047-5.953-14.372l-26.331-10.906c-5.613-2.325-12.047.34-14.372 5.953s.34 12.048 5.953 14.372z"/><path d="m166.038 256c0-6.075-4.925-11-11-11h-28.5c-6.075 0-11 4.925-11 11s4.925 11 11 11h28.5c6.075 0 11-4.925 11-11z"/><path d="m105.853 306.286-26.33 10.906c-5.613 2.325-8.278 8.759-5.953 14.372 1.754 4.236 5.85 6.793 10.167 6.793 1.402 0 2.829-.27 4.205-.84l26.33-10.906c5.613-2.325 8.278-8.759 5.953-14.372-2.325-5.612-8.759-8.278-14.372-5.953z"/><path d="m192.387 319.612c-4.296-4.296-11.261-4.296-15.557 0l-20.152 20.152c-4.295 4.296-4.295 11.261 0 15.557 2.148 2.148 4.963 3.222 7.778 3.222s5.63-1.074 7.778-3.222l20.152-20.152c4.297-4.296 4.297-11.261.001-15.557z"/><path d="m199.76 391.775c-5.615-2.325-12.048.34-14.372 5.953l-10.906 26.331c-2.325 5.613.34 12.047 5.953 14.372 1.377.57 2.802.84 4.205.84 4.316 0 8.413-2.558 10.167-6.793l10.906-26.331c2.325-5.613-.34-12.048-5.953-14.372z"/><path d="m256 345.962c-6.075 0-11 4.925-11 11v28.5c0 6.075 4.925 11 11 11s11-4.925 11-11v-28.5c0-6.075-4.925-11-11-11z"/><path d="m326.612 397.728c-2.324-5.613-8.759-8.279-14.372-5.953-5.613 2.325-8.278 8.759-5.953 14.372l10.906 26.331c1.754 4.236 5.85 6.793 10.167 6.793 1.402 0 2.829-.27 4.205-.84 5.613-2.325 8.278-8.759 5.953-14.372z"/><path d="m335.169 319.612c-4.296-4.296-11.261-4.296-15.557 0-4.295 4.296-4.295 11.261 0 15.557l20.152 20.152c2.148 2.148 4.963 3.222 7.778 3.222s5.63-1.074 7.778-3.222c4.295-4.296 4.295-11.261 0-15.557z"/><path d="m432.477 317.193-26.33-10.906c-5.614-2.325-12.047.34-14.372 5.953s.34 12.047 5.953 14.372l26.33 10.906c1.377.57 2.802.84 4.205.84 4.316 0 8.413-2.558 10.167-6.793 2.325-5.613-.34-12.047-5.953-14.372z"/><path d="m396.462 256c0-6.075-4.925-11-11-11h-28.5c-6.075 0-11 4.925-11 11s4.925 11 11 11h28.5c6.075 0 11-4.925 11-11z"/><path d="m401.942 206.554c1.402 0 2.829-.27 4.205-.84l26.331-10.907c5.613-2.325 8.278-8.76 5.953-14.372s-8.758-8.279-14.372-5.953l-26.331 10.907c-5.613 2.325-8.278 8.76-5.953 14.372 1.755 4.236 5.85 6.793 10.167 6.793z"/><path d="m319.613 192.387c2.148 2.148 4.963 3.222 7.778 3.222s5.63-1.074 7.778-3.222l20.152-20.152c4.295-4.296 4.295-11.261 0-15.557-4.296-4.296-11.261-4.296-15.557 0l-20.152 20.152c-4.295 4.296-4.295 11.261.001 15.557z"/><path d="m312.24 120.225c1.377.57 2.802.84 4.205.84 4.316 0 8.413-2.558 10.167-6.793l10.906-26.33c2.325-5.613-.34-12.047-5.953-14.372s-12.047.341-14.372 5.953l-10.906 26.33c-2.325 5.612.341 12.047 5.953 14.372z"/></g><g><path d="m463.678 273.914c3.706-4.853 6.539-9.33 8.37-12.959 1.572-3.117 1.572-6.794 0-9.911-1.832-3.63-4.665-8.107-8.372-12.961 30.119-19.353 46.55-59.428 48.292-82.746.26-3.481-1.147-6.879-3.792-9.156-17.488-15.055-57.585-31.941-92.563-24.384-.779-5.658-1.926-10.766-3.34-15.062-1.092-3.316-3.692-5.917-7.008-7.008-4.292-1.413-9.401-2.559-15.065-3.337 7.564-34.96-9.14-74.861-24.382-92.566-2.278-2.646-5.675-4.054-9.156-3.792-23.033 1.722-63.378 18.162-82.748 48.291-4.853-3.706-9.33-6.539-12.959-8.37-3.117-1.572-6.794-1.572-9.911 0-3.63 1.832-8.107 4.665-12.961 8.372-19.353-30.119-59.428-46.55-82.746-48.292-3.478-.256-6.878 1.147-9.156 3.792-15.056 17.488-31.942 57.584-24.385 92.563-5.658.779-10.766 1.926-15.061 3.34-3.316 1.092-5.917 3.692-7.008 7.008-1.413 4.292-2.559 9.402-3.337 15.066-34.959-7.563-74.861 9.139-92.566 24.381-2.646 2.277-4.053 5.675-3.792 9.156 1.721 23.033 18.16 63.378 48.291 82.748-3.706 4.853-6.539 9.33-8.37 12.959-1.572 3.116-1.572 6.794 0 9.91 1.831 3.63 4.665 8.107 8.372 12.961-30.118 19.353-46.55 59.428-48.293 82.745-.26 3.481 1.147 6.879 3.792 9.157 14.513 12.495 44.594 26.25 74.401 26.25 6.111 0 12.21-.578 18.162-1.864.779 5.658 1.926 10.766 3.34 15.062 1.092 3.315 3.692 5.916 7.008 7.008 4.292 1.413 9.401 2.56 15.065 3.337-7.564 34.959 9.14 74.861 24.382 92.566 2.098 2.437 5.146 3.823 8.335 3.823.272 0 .546-.01.821-.031 23.033-1.721 63.378-18.16 82.748-48.29 4.853 3.706 9.33 6.539 12.959 8.37 1.558.786 3.256 1.179 4.955 1.179 1.698 0 3.397-.393 4.955-1.179 3.63-1.831 8.108-4.665 12.961-8.372 19.353 30.118 59.428 46.549 82.746 48.293.275.021.548.031.821.031 3.189 0 6.238-1.386 8.335-3.823 15.056-17.489 31.942-57.585 24.385-92.563 5.658-.779 10.766-1.926 15.061-3.34 3.316-1.092 5.917-3.692 7.008-7.008 1.413-4.291 2.559-9.401 3.337-15.064 5.992 1.297 12.129 1.88 18.276 1.88 29.708-.001 59.62-13.633 74.29-26.262 2.646-2.277 4.053-5.675 3.792-9.156-1.72-23.037-18.16-63.382-48.289-82.752zm-80.882 24.185c-9.627 0-18.834-3.247-26.278-9.208 3.397-10.357 5.236-21.413 5.236-32.891s-1.838-22.534-5.235-32.89c7.443-5.96 16.655-9.209 26.277-9.209 28.945 0 55.893 25.467 66.724 42.099-10.83 16.631-37.779 42.099-66.724 42.099zm-126.796 41.655c-46.183 0-83.755-37.572-83.755-83.755s37.572-83.755 83.755-83.755c46.182 0 83.754 37.572 83.754 83.755s-37.572 83.755-83.754 83.755zm-126.796-41.656c-28.946 0-55.894-25.467-66.724-42.099 10.831-16.631 37.778-42.099 66.724-42.099 9.628 0 18.834 3.248 26.277 9.208-3.397 10.357-5.235 21.413-5.235 32.891s1.838 22.534 5.235 32.89c-7.444 5.961-16.655 9.209-26.277 9.209zm360.044-138.707c-3.426 18.103-16.952 49.152-40.647 62.082-11.947-11.192-27.404-21.724-45.024-26.652 8.619-15.513 12.427-33.818 13.074-50.609 25.885-7.578 57.466 4.893 72.597 15.179zm-110.148 32.616c-11.439.653-22.383 4.328-31.824 10.628-9.181-15.643-22.267-28.73-37.91-37.911 6.3-9.439 9.974-20.379 10.627-31.823 21.02-16.877 54.905-17.449 72.836-13.728 3.73 17.95 3.148 51.815-13.729 72.834zm-26.481-169.252c10.372 15.216 22.756 46.712 15.167 72.602-16.788.648-35.096 4.453-50.607 13.067-4.928-17.62-15.46-33.078-26.652-45.025 12.933-23.689 44.108-37.215 62.092-40.644zm-96.619 39.725c16.631 10.831 42.099 37.779 42.099 66.724 0 9.628-3.247 18.834-9.208 26.277-10.357-3.397-21.413-5.236-32.891-5.236s-22.534 1.838-32.89 5.235c-5.96-7.443-9.208-16.655-9.208-26.277-.001-28.945 25.467-55.893 42.098-66.723zm-96.608-39.729c18.103 3.426 49.152 16.953 62.081 40.648-11.192 11.947-21.724 27.404-26.652 45.024-15.514-8.619-33.819-12.427-50.61-13.074-7.577-25.887 4.895-57.466 15.181-72.598zm-40.22 96.419c17.952-3.729 51.815-3.147 72.835 13.729.653 11.439 4.328 22.383 10.628 31.823-15.643 9.181-28.73 22.267-37.911 37.91-9.439-6.3-20.379-9.974-31.823-10.627-16.877-21.019-17.45-54.904-13.729-72.835zm-96.416 40.21c15.215-10.373 46.711-22.756 72.601-15.167.648 16.788 4.453 35.096 13.067 50.607-17.62 4.928-33.078 15.459-45.025 26.652-23.69-12.933-37.215-44.108-40.643-62.092zm-.004 193.228c3.426-18.103 16.953-49.153 40.648-62.082 11.947 11.192 27.404 21.724 45.025 26.652-8.619 15.514-12.427 33.819-13.074 50.61-25.89 7.577-57.468-4.895-72.599-15.18zm110.148-32.615c11.439-.653 22.383-4.328 31.823-10.627 9.181 15.643 22.267 28.73 37.91 37.911-6.3 9.439-9.974 20.379-10.627 31.823-21.02 16.877-54.907 17.448-72.836 13.728-3.729-17.952-3.148-51.816 13.73-72.835zm26.48 169.251c-10.373-15.216-22.756-46.712-15.167-72.602 16.788-.648 35.096-4.453 50.607-13.067 4.928 17.621 15.459 33.078 26.652 45.025-12.933 23.69-44.108 37.216-62.092 40.644zm96.62-39.724c-16.631-10.831-42.099-37.778-42.099-66.724 0-9.628 3.247-18.834 9.208-26.277 10.357 3.397 21.413 5.235 32.891 5.235s22.534-1.838 32.89-5.235c5.96 7.444 9.208 16.655 9.208 26.277.001 28.946-25.467 55.894-42.098 66.724zm96.608 39.728c-18.103-3.426-49.152-16.953-62.082-40.647 11.192-11.946 21.724-27.404 26.652-45.025 15.514 8.619 33.818 12.428 50.609 13.074 7.579 25.887-4.893 57.467-15.179 72.598zm40.22-96.419c-17.951 3.729-51.815 3.148-72.835-13.729-.653-11.439-4.328-22.383-10.628-31.823 15.643-9.181 28.73-22.267 37.911-37.91 9.439 6.3 20.38 9.974 31.824 10.627 16.876 21.019 17.448 54.904 13.728 72.835zm23.814-25.043c-.648-16.788-4.453-35.096-13.067-50.607 17.62-4.928 33.078-15.46 45.025-26.652 23.69 12.932 37.215 44.108 40.644 62.092-15.216 10.372-46.711 22.756-72.602 15.167z"/><path d="m256.003 245h-.007c-6.075 0-10.997 4.925-10.997 11s4.929 11 11.004 11 11-4.925 11-11c0-6.076-4.924-11-11-11z"/></g></g><g/><g/><g/><g/><g/><g/><g/><g/><g/><g/><g/><g/><g/><g/><g/></svg>