<svg width="247" height="260" viewBox="0 0 247 260" fill="none" xmlns="http://www.w3.org/2000/svg">
<path d="M21.3154 242.105V49.9481L68.7184 98.9418L31.1778 136.164L64.5826 169.569L79.217 154.935L61.4012 136.164L125.347 71.8998C134.764 59.6832 127.999 48.5695 123.439 44.5397L83.9892 84.3073L0 0.318141V259.921C16.5433 258.903 21.1033 247.62 21.3154 242.105Z" fill="url(#paint0_linear_131_31)"/>
<path d="M123.439 228.425L216.018 136.482C204.31 125.284 192.475 130.756 188.021 134.892L123.439 198.838L101.805 176.568L226.198 50.5844V240.833C228.489 257.63 240.939 260.557 246.877 259.921V0L71.2635 176.886L123.439 228.425Z" fill="url(#paint1_linear_131_31)"/>
<defs>
<linearGradient id="paint0_linear_131_31" x1="0" y1="130" x2="246.877" y2="130" gradientUnits="userSpaceOnUse">
<stop stop-color="#CEB591"/>
<stop offset="1" stop-color="#F1E1C6"/>
</linearGradient>
<linearGradient id="paint1_linear_131_31" x1="0" y1="130" x2="246.877" y2="130" gradientUnits="userSpaceOnUse">
<stop stop-color="#CEB591"/>
<stop offset="1" stop-color="#F1E1C6"/>
</linearGradient>
</defs>
</svg>
