<svg id="Capa_1" enable-background="new 0 0 512.056 512.056" viewBox="0 0 512.056 512.056" xmlns="http://www.w3.org/2000/svg"><g><path d="m224.599 364.114h62.803v22h-62.803z" fill="#3cc"/><path d="m507.743 124.754-93.859-93.86c-19.905-19.905-46.37-30.867-74.52-30.867-28.149 0-54.614 10.962-74.519 30.867l-8.845 8.846-8.845-8.845c-19.905-19.905-46.37-30.867-74.519-30.867s-54.614 10.962-74.519 30.867l-94.895 94.895c-3.727 3.727-4.286 9.573-1.334 13.939 49.152 72.705 126.265 120.206 211.712 132.104v152.561h-24.486c-6.075 0-11 4.925-11 11s4.925 11 11 11h32.592v43.634h-11.48c-6.075 0-11 4.925-11 11s4.925 11 11 11h91.551c6.075 0 11-4.925 11-11s-4.925-11-11-11h-11.48v-43.634h32.592c6.075 0 11-4.925 11-11s-4.925-11-11-11h-24.486v-152.561c85.483-11.903 162.616-59.434 211.768-132.187 3.275-4.85 2.168-11.378-2.428-14.892zm-394.07-78.303c15.75-15.75 36.689-24.423 58.962-24.423s43.213 8.674 58.963 24.423l16.624 16.623c4.295 4.296 11.26 4.296 15.556 0l16.623-16.623c15.75-15.75 36.689-24.423 58.962-24.423s43.213 8.674 58.963 24.423l78.482 78.482-116.173 11.624c-35.43 3.546-70.874-8.146-97.242-32.077-4.193-3.806-10.592-3.806-14.785 0-26.368 23.931-61.81 35.622-97.242 32.077l-116.175-11.624zm164.111 94.946c-7.101 1.75-14.424 2.654-21.783 2.654s-14.684-.904-21.785-2.655c7.63-4.113 14.928-8.901 21.785-14.346 6.857 5.445 14.153 10.234 21.783 14.347zm-34.079 348.631v-43.634h24.591v43.634zm-8.106-65.634v-157.962c0-11.25 9.152-20.401 20.401-20.402 11.25 0 20.401 9.152 20.401 20.401v157.963zm59.512-174.334c-5.029-11.969-15.399-21.156-28.11-24.574v-30.135c0-6.075-4.925-11-11-11s-11 4.925-11 11v30.135c-12.711 3.418-23.081 12.605-28.11 24.574-71.463-9.89-136.671-46.588-182.296-103.076l114.581 11.464c18.71 1.873 37.422.117 55.169-4.927 15.87 8.195 33.685 12.53 51.656 12.53 17.969 0 35.781-4.334 51.65-12.527 13.103 3.724 26.731 5.656 40.498 5.656 4.88 0 9.78-.242 14.678-.732l114.581-11.464c-45.626 56.491-110.83 93.187-182.297 103.076z"/></g><g/><g/><g/><g/><g/><g/><g/><g/><g/><g/><g/><g/><g/><g/><g/></svg>