<svg id="Layer_1" enable-background="new 0 0 512 512" height="512" viewBox="0 0 512 512" width="512" xmlns="http://www.w3.org/2000/svg"><path d="m437.04 480h-174.989c-20.134 0-36.514-16.38-36.514-36.514v-2.383h23.009c8.836 0 16-7.164 16-16v-39.345h19.215c42.101 0 76.352-34.251 76.352-76.352v-186.402c0-42.1-34.251-76.352-76.352-76.352h-58.225v-30.652c0-8.836-7.164-16-16-16s-16 7.164-16 16v30.652h-58.225c-42.1 0-76.352 34.251-76.352 76.352v186.401c0 42.101 34.251 76.352 76.352 76.352h19.216v39.345c0 8.836 7.164 16 16 16h23.009v2.383c0 37.779 30.735 68.514 68.514 68.514h174.99c8.836 0 16-7.164 16-16s-7.164-15.999-16-15.999zm-301.728-401.348h148.449c24.456 0 44.352 19.896 44.352 44.352v17.408c-71.976-10.824-102.7 1.054-132.47 12.567-25.492 9.858-49.666 19.193-104.683 13.863v-43.838c0-24.456 19.896-44.352 44.352-44.352zm-44.352 230.753v-31.761h63.225c8.836 0 16-7.164 16-16s-7.164-16-16-16h-63.225v-46.677c10.7.943 20.449 1.377 29.359 1.377 41.557 0 65.314-9.187 86.865-17.52 27.668-10.699 53.875-20.827 120.929-10.027v136.608c0 24.456-19.896 44.352-44.352 44.352h-148.449c-24.456 0-44.352-19.896-44.352-44.352zm95.568 76.352h46.018v23.345h-46.018z"/></svg>