<svg id="Capa_1" enable-background="new 0 0 512 512" viewBox="0 0 512 512" xmlns="http://www.w3.org/2000/svg"><g><path d="m421.628 99.599 10.269-10.27c4.188-4.188 9.757-6.495 15.679-6.495 6.075 0 11-4.925 11-11s-4.925-11-11-11c-9.431 0-18.407 2.943-25.893 8.383v-6.083c0-6.075-4.925-11-11-11s-11 4.925-11 11v31.848.01 2.332c0 7.498-1.679 14.737-4.846 21.296l-5.791-5.791c-4.188-4.188-6.495-9.756-6.495-15.679 0-11.798-4.595-22.891-12.938-31.236l-5.372-5.373c-4.297-4.296-11.262-4.295-15.557 0-4.296 4.296-4.296 11.261.001 15.556l5.372 5.372c4.188 4.189 6.494 9.758 6.494 15.68 0 11.799 4.595 22.893 12.938 31.235l7.9 7.9c-10.913 12.822-16.878 28.921-16.878 45.947v36.845c0 6.075 4.925 11 11 11s11-4.925 11-11v-20.476c0-3.971 2.588-7.344 6.164-8.535l15.547 15.547c2.148 2.148 4.963 3.222 7.778 3.222 2.814 0 5.631-1.074 7.778-3.222 4.296-4.296 4.296-11.261 0-15.556l-3.844-3.844c5.249-2.191 10.071-5.407 14.214-9.55l12.846-12.846c4.296-4.295 4.296-11.26 0-15.556-4.297-4.296-11.262-4.295-15.557 0l-12.846 12.846c-4.188 4.188-9.756 6.494-15.679 6.494h-7.402c-2.418 0-4.773.278-7.033.805 2.278-7.797 6.492-14.942 12.396-20.846 12.883-12.881 20.189-29.838 20.755-47.96z" fill="#3cc"/><g><path d="m383.837 337.021c-5.473 2.638-7.77 9.213-5.131 14.686 6.805 14.115 6.805 30.305 0 44.419-2.639 5.472-.342 12.047 5.131 14.686 1.54.742 3.167 1.094 4.77 1.094 4.092 0 8.021-2.293 9.916-6.225 9.733-20.187 9.733-43.342 0-63.529-2.638-5.473-9.215-7.77-14.686-5.131z"/><path d="m467.851 230.162v-.001l7.878-17.434c14.445-31.966 21.771-65.963 21.771-101.044v-100.683c0-6.075-4.925-11-11-11h-187.753c-6.075 0-11 4.925-11 11v68.48c0 18.335 1.124 36.69 3.31 54.915-8.933-1.805-18.504-.774-27.271 3.6l-150.302 74.969-10.929-21.911c-2.712-5.436-9.314-7.646-14.754-4.934-5.437 2.711-7.645 9.317-4.934 14.753l14.547 29.165-56.943 28.403-5.124-10.273c-2.712-5.436-9.312-7.646-14.754-4.934-5.437 2.711-7.645 9.317-4.934 14.753l40.863 81.925c1.926 3.86 5.813 6.093 9.853 6.093 1.649 0 3.324-.373 4.901-1.159 5.437-2.711 7.645-9.317 4.934-14.753l-5.124-10.273 56.943-28.402 14.547 29.165c1.926 3.86 5.813 6.093 9.853 6.093 1.649 0 3.324-.373 4.901-1.159 5.437-2.711 7.645-9.317 4.934-14.753l-10.929-21.912 150.302-74.969c1.1-.548 2.163-1.148 3.201-1.78 3.248 21.623 4.91 43.499 4.91 65.346v57.851c0 20.153-12.091 38.011-30.802 45.496l-113.018 45.205h-55.207c-6.075 0-11 4.925-11 11v24c0 28.122 22.879 51 51 51h5.068c11.161 0 22.155-1.886 32.676-5.607l3.334-1.179c11.418 4.468 23.426 6.736 35.689 6.74l16.315.006h.049c14.916 0 29.656-2.391 43.808-7.105 23.772-7.92 49.956-7.918 73.67-.013.02.007.091.031.11.038 14.132 4.711 28.851 7.104 43.748 7.113l12.692.007c21.249 0 40.625-10.779 51.83-28.833 11.204-18.055 12.264-40.201 2.831-59.243l-2-4.038c-14.727-29.731-22.51-62.982-22.51-96.158v-1.58c0-31.937 6.668-62.885 19.82-91.986zm-406.584 69.971-10.977-22.006 56.943-28.402 10.976 22.006zm62.035-67.482 34.255-17.086 18.213 36.513-34.255 17.086-3.358-6.731zm168.516-38.456-96.36 48.063-18.212-36.513 96.361-48.063c10.067-5.021 22.341-.917 27.362 9.15 2.433 4.876 2.82 10.408 1.093 15.576-1.73 5.169-5.367 9.355-10.244 11.787zm159.009 235.456 2 4.038c6.03 12.174 5.354 26.333-1.811 37.876s-19.55 18.435-33.129 18.435l-12.685-.008c-12.533-.008-24.916-2.021-36.746-5.964-.02-.007-.091-.031-.11-.038-14.134-4.711-28.98-7.067-43.832-7.067-14.84 0-29.684 2.354-43.807 7.059-11.906 3.966-24.306 5.978-36.854 5.978-.014 0-.028 0-.042 0l-16.315-.006c-9.549-.003-18.896-1.775-27.782-5.267l-3.688-1.45c-2.464-.968-5.194-1.017-7.691-.133l-7.204 2.547c-8.159 2.885-16.686 4.348-25.342 4.348h-5.068c-15.99 0-29-13.009-29-29v-13h46.325c1.399 0 2.786-.267 4.085-.787l114.984-45.993c27.113-10.845 44.632-36.721 44.632-65.922v-57.851c0-29.74-2.901-59.536-8.616-88.731 2.205-6.966 2.573-14.227 1.142-21.216l24.744-12.342c5.437-2.711 7.645-9.317 4.934-14.753-2.712-5.437-9.312-7.646-14.754-4.934l-24.14 12.041c-3.521-22.498-5.31-45.283-5.31-68.032v-57.479h165.752v89.682c0 31.936-6.668 62.884-19.819 91.986l-7.878 17.434c-14.445 31.967-21.771 65.964-21.771 101.046v1.58c0 36.545 8.575 73.172 24.796 105.923z"/></g></g><g/><g/><g/><g/><g/><g/><g/><g/><g/><g/><g/><g/><g/><g/><g/></svg>