<svg id="Capa_1" enable-background="new 0 0 512 512" viewBox="0 0 512 512" xmlns="http://www.w3.org/2000/svg"><g><g fill="#3cc"><path d="m143 282.54c-6.075 0-11 4.925-11 11v6.911c0 6.075 4.925 11 11 11s11-4.925 11-11v-6.911c0-6.075-4.925-11-11-11z"/><path d="m143 333.451c-6.075 0-11 4.925-11 11v8.819c0 6.075 4.925 11 11 11s11-4.925 11-11v-8.819c0-6.076-4.925-11-11-11z"/><path d="m143.062 386.27c-.021 0-.042 0-.062 0-6.047 0-10.965 4.884-10.999 10.938-.018 3.227-.067 8.88-.124 10.311-.24 6.07 4.486 11.186 10.557 11.425.148.006.295.009.442.009 5.874 0 10.75-4.644 10.983-10.566.09-2.271.137-10.164.142-11.056.033-6.074-4.864-11.027-10.939-11.061z"/><path d="m138.63 440.571c-5.789-1.847-11.978 1.347-13.824 7.135-.64 2.003-1.255 3.819-1.881 5.55-2.068 5.712.886 12.02 6.599 14.087 1.236.448 2.5.66 3.743.66 4.5 0 8.724-2.783 10.344-7.259.724-1.998 1.428-4.075 2.154-6.35 1.846-5.787-1.348-11.976-7.135-13.823z"/><path d="m358.24 293.54v6.911c0 6.075 4.925 11 11 11s11-4.925 11-11v-6.911c0-6.075-4.925-11-11-11s-11 4.925-11 11z"/><path d="m369.24 333.451c-6.075 0-11 4.925-11 11v8.819c0 6.075 4.925 11 11 11s11-4.925 11-11v-8.819c0-6.076-4.925-11-11-11z"/><path d="m369.809 418.945c6.07-.24 10.797-5.355 10.557-11.425-.057-1.431-.106-7.085-.125-10.312-.035-6.054-4.952-10.937-10.999-10.937-.021 0-.043 0-.063 0-6.075.035-10.972 4.988-10.938 11.063.005.893.053 8.784.143 11.055.233 5.923 5.108 10.566 10.983 10.566.146-.001.293-.004.442-.01z"/><path d="m389.316 453.256c-.626-1.731-1.241-3.546-1.881-5.55-1.847-5.788-8.036-8.98-13.824-7.135-5.787 1.847-8.981 8.036-7.135 13.824.727 2.274 1.431 4.352 2.154 6.35 1.62 4.476 5.843 7.259 10.344 7.259 1.243 0 2.507-.212 3.743-.66 5.714-2.069 8.668-8.376 6.599-14.088z"/><path d="m178.599 126.321c-17.575 0-31.874 14.299-31.874 31.874s14.299 31.874 31.874 31.874 31.873-14.299 31.873-31.874-14.298-31.874-31.873-31.874zm0 41.748c-5.444 0-9.874-4.43-9.874-9.874s4.43-9.874 9.874-9.874 9.873 4.43 9.873 9.874-4.429 9.874-9.873 9.874z"/><path d="m333.401 126.321c-17.575 0-31.873 14.299-31.873 31.874s14.298 31.874 31.873 31.874 31.874-14.299 31.874-31.874-14.298-31.874-31.874-31.874zm0 41.748c-5.444 0-9.873-4.43-9.873-9.874s4.429-9.874 9.873-9.874 9.874 4.43 9.874 9.874-4.429 9.874-9.874 9.874z"/></g><g><path d="m446.946 367.566c-13.056-23.625-19.957-50.418-19.958-77.485v-72.478c12.44-17.566 19.844-38.898 20.025-61.816.145-18.286-4.326-36.416-12.928-52.43-4.766-8.872-7.284-18.602-7.284-28.138 0-14.244 5.009-28.125 14.104-39.086l15.025-18.11c2.723-3.282 3.304-7.841 1.49-11.7-1.812-3.859-5.691-6.323-9.955-6.323h-382.93c-4.264 0-8.144 2.464-9.956 6.324-1.813 3.859-1.232 8.418 1.49 11.7l15.025 18.11c9.095 10.961 14.104 24.842 14.104 39.086 0 9.536-2.519 19.266-7.284 28.138-8.602 16.014-13.072 34.144-12.928 52.43.181 22.918 7.585 44.25 20.025 61.816v72.477c-.001 27.067-6.902 53.861-19.958 77.485-12.244 22.156-18.717 47.327-18.717 72.791 0 22.916 5.016 44.927 14.907 65.424 1.835 3.803 5.685 6.219 9.906 6.219h369.701c4.222 0 8.071-2.417 9.906-6.219 9.892-20.497 14.907-42.508 14.907-65.424 0-25.464-6.473-50.635-18.717-72.791zm-13.2 122.434h-355.492c-6.584-15.699-9.917-32.366-9.917-49.643 0-21.751 5.523-43.242 15.973-62.15 14.851-26.873 22.701-57.347 22.702-88.125v-49.36c18.278 14.358 41.178 23.048 65.95 23.301 24.009.236 46.948-7.196 66.202-21.521 4.874-3.626 5.885-10.518 2.259-15.392-3.626-4.873-10.518-5.885-15.392-2.259-15.117 11.248-33.05 17.177-51.921 17.177-.307 0-.616-.001-.924-.005-47.159-.482-85.828-39.246-86.2-86.41-.115-14.605 3.449-29.075 10.309-41.846 6.479-12.062 9.903-25.391 9.903-38.548 0-19.363-6.809-38.233-19.172-53.134l-.071-.085h336.09l-.071.086c-12.363 14.901-19.172 33.771-19.172 53.134 0 13.157 3.425 26.486 9.903 38.548 6.859 12.771 10.424 27.241 10.309 41.846-.372 47.164-39.041 85.927-86.2 86.41-19.208.228-37.482-5.741-52.845-17.172-4.875-3.626-11.766-2.614-15.392 2.259-3.626 4.874-2.615 11.765 2.259 15.392 18.945 14.096 41.412 21.527 65.047 21.527.384 0 .771-.002 1.155-.006 24.772-.253 47.672-8.943 65.95-23.301v49.36c.001 30.778 7.852 61.252 22.702 88.125 10.449 18.907 15.973 40.398 15.973 62.149 0 17.277-3.333 33.944-9.917 49.643z"/><circle cx="256.12" cy="420.301" r="11"/></g></g><g/><g/><g/><g/><g/><g/><g/><g/><g/><g/><g/><g/><g/><g/><g/></svg>