<svg id="Capa_1" enable-background="new 0 0 512 512" viewBox="0 0 512 512" xmlns="http://www.w3.org/2000/svg"><g><g fill="#3cc"><path d="m501 226.243c-6.075 0-11 4.925-11 11 0 37.991-14.794 73.707-41.658 100.57-4.295 4.296-4.295 11.261 0 15.557 2.148 2.148 4.963 3.222 7.778 3.222s5.63-1.074 7.778-3.222c31.019-31.019 48.102-72.26 48.102-116.127 0-6.076-4.925-11-11-11z"/><path d="m457 226.243c-6.075 0-11 4.925-11 11 0 26.238-10.217 50.905-28.771 69.458-4.295 4.296-4.295 11.261 0 15.557 2.148 2.148 4.963 3.222 7.778 3.222s5.63-1.074 7.778-3.222c22.708-22.708 35.214-52.9 35.214-85.015.001-6.076-4.924-11-10.999-11z"/><path d="m22 237.243c0-6.075-4.925-11-11-11s-11 4.925-11 11c0 43.867 17.083 85.108 48.101 116.127 2.148 2.148 4.963 3.222 7.778 3.222s5.63-1.074 7.778-3.222c4.295-4.296 4.295-11.261 0-15.557-26.863-26.863-41.657-62.58-41.657-100.57z"/><path d="m66 237.243c0-6.075-4.925-11-11-11s-11 4.925-11 11c0 32.114 12.506 62.306 35.214 85.015 2.148 2.148 4.963 3.222 7.778 3.222s5.63-1.074 7.778-3.222c4.295-4.296 4.295-11.261 0-15.557-18.553-18.553-28.77-43.221-28.77-69.458z"/></g><path d="m358.676 56.178h-8.156c-10.751 0-19.498-8.747-19.498-19.498v-25.68c0-6.075-4.925-11-11-11h-128.044c-6.075 0-11 4.925-11 11v25.68c0 10.751-8.747 19.498-19.498 19.498h-8.156c-73.332 0-132.992 59.66-132.992 132.992v5.078c0 6.075 4.925 11 11 11h64.349l-1.752 4.165c-9.638 22.913-7.343 49.099 6.14 70.049 6.905 10.729 16.031 19.208 26.611 25.02-.165 26.253-3.709 52.4-10.561 77.747l-8.876 32.836c-7.525 27.836-11.34 56.57-11.34 85.404v.531c0 6.075 4.925 11 11 11h298.195c6.075 0 11-4.925 11-11v-.532c0-28.834-3.815-57.568-11.34-85.404l-8.876-32.836c-6.852-25.347-10.396-51.494-10.561-77.747 10.58-5.812 19.706-14.291 26.611-25.02 13.483-20.95 15.778-47.136 6.14-70.049l-1.752-4.165h64.349c6.075 0 11-4.925 11-11v-5.078c-.001-73.332-59.661-132.991-132.993-132.991zm50.671 127.07v-26.841c0-6.075-4.925-11-11-11s-11 4.925-11 11v34.486c0 1.465.292 2.915.86 4.265l9.584 22.785c6.823 16.221 5.193 34.768-4.36 49.613-9.45 14.684-24.773 23.392-42.041 23.892-.553.016-1.108.024-1.666.024-30.095 0-54.778-23.527-56.194-53.562-.286-6.068-5.43-10.742-11.506-10.47-6.068.286-10.756 5.438-10.47 11.506 1.97 41.79 36.306 74.526 78.169 74.526.77 0 1.537-.011 2.302-.033 3.886-.113 7.703-.517 11.428-1.198.757 25.579 4.507 51.009 11.189 75.729l8.876 32.836c6.107 22.594 9.595 45.823 10.398 69.195h-275.834c.803-23.372 4.291-46.601 10.398-69.195l8.876-32.836c6.682-24.72 10.432-50.15 11.189-75.73 3.725.681 7.542 1.086 11.428 1.198.764.022 1.531.033 2.301.033 41.863 0 76.199-32.736 78.169-74.526.286-6.068-4.401-11.22-10.47-11.506-6.058-.28-11.22 4.401-11.506 10.47-1.416 30.035-26.099 53.562-56.194 53.562-.557 0-1.112-.008-1.665-.024-17.268-.5-32.591-9.208-42.042-23.892-9.554-14.845-11.184-33.392-4.36-49.613l9.584-22.785c.568-1.35.86-2.8.86-4.265v-34.486c0-6.075-4.925-11-11-11s-11 4.925-11 11v26.841h-60.162c3.089-58.458 51.622-105.07 110.835-105.07h8.156c22.882 0 41.498-18.616 41.498-41.498v-14.679h106.045v14.68c0 22.882 18.616 41.498 41.498 41.498h8.156c59.214 0 107.747 46.612 110.835 105.07zm-143.215 231.847c-2.671-7.095-12.74-9.079-17.93-3.57-6.907 6.801-1.913 18.846 7.78 18.78 7.578.213 13.284-8.292 10.15-15.21z"/></g><g/><g/><g/><g/><g/><g/><g/><g/><g/><g/><g/><g/><g/><g/><g/></svg>