<svg width="44" height="44" viewBox="0 0 44 44" fill="none" xmlns="http://www.w3.org/2000/svg">
<path fill-rule="evenodd" clip-rule="evenodd" d="M15.7854 4.65027C16.0917 4.56607 16.4169 4.58718 16.7424 4.71863C17.0335 4.83616 17.3059 5.00692 17.5032 5.2616C17.7052 5.52266 17.8056 5.84263 17.7991 6.21082C17.7961 6.3808 17.8082 6.54053 17.8157 6.74305C17.8284 7.08817 17.7635 7.42745 17.5911 7.71766C17.4155 8.01286 17.1427 8.23178 16.7913 8.35437C16.4438 8.47542 16.0766 8.50559 15.7288 8.39734C15.376 8.28751 15.0821 8.04663 14.8684 7.69715C14.8152 7.61026 14.7831 7.59587 14.7825 7.59559C14.7817 7.59521 14.7783 7.59394 14.7708 7.59363C14.7602 7.59325 14.7381 7.59468 14.7014 7.60437C13.8459 7.8314 13.1864 8.08985 12.7327 8.54578C12.2954 8.98552 11.9971 9.66544 11.9963 10.8563C11.9945 14.2848 13.1356 17.2426 15.6184 19.5946C17.2523 21.1423 19.1521 22.0017 21.3704 21.5028C23.326 21.0628 24.8699 19.8912 26.1252 18.2694C27.235 16.8355 27.9596 15.2175 28.3362 13.4579C28.5204 12.597 28.7291 11.8209 28.6799 11.0243C28.6283 10.1894 28.4215 9.52827 28.0588 9.01844C27.6984 8.51202 27.1607 8.12164 26.3899 7.86414C26.1651 7.78905 25.9666 7.73918 25.7883 7.74695C25.6299 7.75392 25.4779 7.80645 25.3274 7.97156C25.0862 8.23643 24.7865 8.39994 24.4563 8.4491C24.1297 8.49762 23.7998 8.43066 23.4954 8.28113C22.7764 7.92787 22.5062 7.22546 22.551 6.56141C22.5731 6.23506 22.6242 5.84427 22.803 5.50086C22.9896 5.1427 23.3038 4.85876 23.7893 4.72937C24.1102 4.61771 24.4168 4.60305 24.6965 4.68445C24.9757 4.76577 25.1965 4.93359 25.3635 5.12977C25.5836 5.38814 25.828 5.44584 26.2786 5.4784C28.4139 5.63265 30.4462 7.40887 30.8069 9.6073C31.0157 10.8808 30.956 12.2157 30.6751 13.535C30.2638 15.4662 29.5948 17.268 28.4885 18.9208C26.8082 21.4309 24.59 23.2656 21.4934 23.8524C21.4341 23.8637 21.4035 23.8758 21.3899 23.8827C21.3861 23.8978 21.3809 23.9327 21.3811 23.9979C21.3923 26.8846 21.3598 29.7534 21.4241 32.6259C21.4587 34.171 22.8668 35.58 24.5159 35.9179C25.9409 36.2096 27.0896 35.8785 28.2073 35.0389C28.3096 34.962 28.4086 34.8657 28.4973 34.7606C28.7153 34.502 28.7046 34.4117 28.7044 34.41C28.704 34.4086 28.7027 34.4042 28.6985 34.3964C28.6932 34.3866 28.682 34.3695 28.6604 34.3466C28.6145 34.2979 28.5345 34.2346 28.4016 34.1571C26.6952 33.1618 26.0809 31.2313 26.9475 29.4452C27.6183 28.0632 28.843 27.468 30.2649 27.497C31.6785 27.5258 32.852 28.2144 33.4778 29.5331C34.4129 31.504 33.4396 33.6624 31.3997 34.3514C31.2814 34.3914 31.2137 34.4248 31.1702 34.4589C31.1361 34.4857 31.1063 34.5212 31.0833 34.5927C30.7116 35.7508 30.0745 36.5895 29.2415 37.1854C28.4155 37.7761 27.4163 38.1143 26.3362 38.3104C24.9421 38.5635 23.5056 38.2627 22.302 37.621C21.1002 36.9802 20.0994 35.9829 19.5999 34.8055C19.3428 34.1997 19.1181 33.5407 19.0667 32.827L19.0559 32.5175C19.0596 29.7863 19.0475 27.0467 19.0628 24.3114C19.0642 24.0525 19.0375 23.9749 19.0159 23.9423C19.0042 23.925 18.9528 23.8603 18.6868 23.7987C14.8605 22.9126 12.4792 20.359 10.9387 16.952C10.4904 15.9603 10.1222 14.9216 9.92115 13.8475C9.59213 12.0891 9.27698 10.1433 10.1624 8.29969C11.0015 6.55278 12.4743 5.56489 14.4163 5.3993C14.6884 5.37603 14.8526 5.30799 15.0169 5.13367C15.2267 4.91099 15.4838 4.73326 15.7854 4.65027ZM26.2639 37.9169L26.6389 37.8427C26.6419 37.842 26.6447 37.8404 26.6477 37.8397C26.5216 37.8675 26.3935 37.8933 26.2639 37.9169ZM24.7376 36.3622C24.8105 36.3731 24.8827 36.3827 24.9544 36.3905C24.8827 36.3827 24.8105 36.3732 24.7376 36.3622ZM24.4358 36.3104C24.5295 36.3296 24.6224 36.3452 24.7141 36.3593C24.6224 36.345 24.5296 36.3286 24.4358 36.3095V36.3104ZM26.5354 36.2987L26.5745 36.2909C26.5909 36.2868 26.6069 36.2806 26.6233 36.2762C26.5941 36.2839 26.5648 36.2916 26.5354 36.2987ZM27.1585 36.0985C27.1698 36.0939 27.1813 36.0895 27.1926 36.0848C27.1813 36.0895 27.1698 36.0939 27.1585 36.0985ZM20.2239 35.1571C20.2597 35.2184 20.2974 35.2788 20.3362 35.3387C20.2974 35.2788 20.2597 35.2184 20.2239 35.1571ZM20.096 34.9208C20.1302 34.9881 20.1656 35.055 20.2034 35.121C20.1656 35.055 20.1301 34.9881 20.096 34.9208ZM31.1858 29.5741C30.2595 29.2647 29.4493 29.545 29.0354 30.3192C28.6175 31.101 28.8286 31.826 29.7083 32.5194C29.9861 32.6984 30.255 32.6958 30.5208 32.6952C31.3385 32.6933 32.128 32.0157 32.2366 31.2274C32.3152 30.6537 31.7482 29.762 31.1858 29.5741ZM27.3079 29.62C27.2596 29.7194 27.2161 29.8198 27.178 29.9198V29.9208C27.2161 29.8205 27.2595 29.7206 27.3079 29.621C27.3448 29.5448 27.3835 29.4711 27.4241 29.4003V29.3993C27.3835 29.4701 27.3449 29.5438 27.3079 29.62ZM29.5549 27.9423C29.5082 27.9496 29.4622 27.9596 29.4163 27.9686C29.4727 27.9575 29.5295 27.9463 29.5872 27.9374L29.5549 27.9423ZM14.4446 18.9432C14.7227 19.2669 15.0218 19.5814 15.343 19.8856L15.344 19.8846C15.1833 19.7324 15.028 19.5779 14.8782 19.4208C14.8033 19.3423 14.7297 19.2632 14.6575 19.1835C14.513 19.0239 14.3733 18.8624 14.2395 18.6981L14.4446 18.9432ZM26.4417 18.5136V18.5145C26.5071 18.4299 26.5713 18.3446 26.634 18.2587C26.5713 18.3443 26.507 18.4291 26.4417 18.5136ZM13.177 17.1571C13.2283 17.2463 13.2813 17.3347 13.3352 17.4227L13.178 17.1571C13.1267 17.068 13.0763 16.9787 13.0276 16.8886L13.177 17.1571ZM30.4729 10.12C30.4892 10.2674 30.5026 10.4155 30.512 10.5643C30.5028 10.4196 30.4907 10.275 30.4749 10.1317L30.4729 10.12ZM10.3821 8.79187C10.3915 8.7684 10.4036 8.74597 10.4133 8.72254L10.3821 8.79187ZM26.7239 5.94129C26.8687 5.96942 27.0126 6.00509 27.1545 6.04871C27.0126 6.00509 26.8687 5.96965 26.7239 5.94129ZM26.2502 5.87781C26.3964 5.88837 26.5421 5.90678 26.6868 5.93348C26.6024 5.91777 26.5178 5.9046 26.4329 5.89441L26.2502 5.87684V5.87781ZM24.8489 5.19715C24.9261 5.25095 24.9964 5.31616 25.0588 5.38953C25.1002 5.43805 25.1426 5.48137 25.1858 5.52039L24.9573 5.28309C24.9231 5.25176 24.8866 5.22344 24.8489 5.19715ZM23.9163 5.10828C23.8678 5.12038 23.8213 5.1347 23.7776 5.15027C23.8214 5.13464 23.8677 5.12139 23.9163 5.10926C23.9765 5.0881 24.0347 5.07153 24.0911 5.05945C24.0347 5.0715 23.9763 5.08717 23.9163 5.10828ZM19.968 34.6493L20.0559 34.8436C20.0636 34.8595 20.0725 34.8747 20.0803 34.8905C20.0406 34.8108 20.0025 34.7307 19.968 34.6493ZM10.3811 8.7948C10.3396 8.89878 10.302 9.00362 10.2678 9.10828C10.3024 9.00252 10.34 8.89691 10.3821 8.79187L10.3811 8.7948Z" fill="#16263D"/>
</svg>
