<svg width="44" height="44" viewBox="0 0 44 44" fill="none" xmlns="http://www.w3.org/2000/svg">
<path d="M22 10.9998C20.9917 10.9998 20.1285 10.6408 19.4104 9.92275C18.6924 9.2047 18.3333 8.3415 18.3333 7.33317C18.3333 6.32484 18.6924 5.46164 19.4104 4.74359C20.1285 4.02553 20.9917 3.6665 22 3.6665C23.0083 3.6665 23.8715 4.02553 24.5896 4.74359C25.3076 5.46164 25.6667 6.32484 25.6667 7.33317C25.6667 8.3415 25.3076 9.2047 24.5896 9.92275C23.8715 10.6408 23.0083 10.9998 22 10.9998ZM16.5 40.3332V16.4998H5.5V12.8332H38.5V16.4998H27.5V40.3332H23.8333V29.3332H20.1667V40.3332H16.5Z" fill="#16263D"/>
</svg>
